<?xml version="1.0" encoding="UTF-8" standalone="no"?>
<!-- Created with Inkscape (http://www.inkscape.org/) -->

<svg
   xmlns:dc="http://purl.org/dc/elements/1.1/"
   xmlns:cc="http://creativecommons.org/ns#"
   xmlns:rdf="http://www.w3.org/1999/02/22-rdf-syntax-ns#"
   xmlns:svg="http://www.w3.org/2000/svg"
   xmlns="http://www.w3.org/2000/svg"
   xmlns:sodipodi="http://sodipodi.sourceforge.net/DTD/sodipodi-0.dtd"
   xmlns:inkscape="http://www.inkscape.org/namespaces/inkscape"
   width="150"
   height="150"
   id="svg4318"
   version="1.1"
   inkscape:version="0.48.5 r10040"
   sodipodi:docname="drawing.svg">
  <defs
     id="defs4320" />
  <sodipodi:namedview
     id="base"
     pagecolor="#ffffff"
     bordercolor="#666666"
     borderopacity="1.0"
     inkscape:pageopacity="0.0"
     inkscape:pageshadow="2"
     inkscape:zoom="1"
     inkscape:cx="41.911083"
     inkscape:cy="182.37242"
     inkscape:document-units="px"
     inkscape:current-layer="layer1"
     showgrid="false"
     inkscape:window-width="956"
     inkscape:window-height="1025"
     inkscape:window-x="0"
     inkscape:window-y="0"
     inkscape:window-maximized="0">
    <inkscape:grid
       empspacing="5"
       visible="true"
       enabled="true"
       snapvisiblegridlinesonly="true"
       type="xygrid"
       id="grid6116" />
  </sodipodi:namedview>
  <metadata
     id="metadata4323">
    <rdf:RDF>
      <cc:Work
         rdf:about="">
        <dc:format>image/svg+xml</dc:format>
        <dc:type
           rdf:resource="http://purl.org/dc/dcmitype/StillImage" />
        <dc:title></dc:title>
      </cc:Work>
    </rdf:RDF>
  </metadata>
  <g
     inkscape:label="Layer 1"
     inkscape:groupmode="layer"
     id="layer1"
     transform="translate(0,-902.36218)">
    <rect
       id="rect4456"
       width="150"
       height="150"
       x="0"
       y="902.36218"
       style="fill:#3498db;fill-opacity:0.94117647"
       ry="0.25000015"
       rx="0" />
    <path
       style="fill:#2980b9;fill-opacity:1"
       d="m 58.913401,1033.9806 c -0.59983,-1.1207 -0.78989,-2.9851 -0.42237,-4.1431 1.17211,-3.693 -1.41782,-9.2891 -5.25563,-11.3559 -7.66768,-4.1293 -15.365013,-15.8124 -16.449213,-24.9669 -0.193917,-1.6373 -1.140077,-3.7688 -2.102577,-4.73662 -2.117332,-2.12904 -2.354584,-9.01302 -0.367466,-10.66219 0.999126,-0.8292 1.498789,-4.67635 1.801733,-13.87244 0.387832,-11.77287 0.654038,-13.21142 3.557643,-19.22504 3.1219,-6.46575 10.66005,-15.48765 12.16394,-14.55819 0.43345,0.26789 2.06615,-0.84693 3.62822,-2.47737 2.93182,-3.06016 5.03332,-3.76227 5.65737,-1.89012 0.19696,0.59088 2.44101,-0.75912 4.98678,-3 2.54578,-2.24088 4.89713,-4.07432 5.22523,-4.07432 0.3281,0 0.59655,1.38064 0.59655,3.06809 l 0,3.0681 2.90437,-2.0681 c 3.53909,-2.52005 4.08704,-2.56229 4.12604,-0.31809 0.0265,1.52448 0.17436,1.49227 1.14748,-0.25 0.61439,-1.1 1.24615,-2.15794 1.40391,-2.35099 0.15776,-0.19304 1.82137,0.81946 3.69691,2.25 3.9719,3.02952 4.46311,3.13509 4.89797,1.05267 0.26475,-1.26782 0.93913,-1.09268 3.72257,0.96678 1.869576,1.3833 3.818999,2.25567 4.332029,1.93859 1.71242,-1.05832 11.84645,6.90523 15.78313,12.40274 5.90517,8.24646 7.47887,13.86039 7.48249,26.69258 0.003,10.02184 0.19426,11.14373 2.25309,13.20455 2.71869,2.72131 2.88231,6.24034 0.43975,9.45822 -0.99564,1.31167 -2.60039,5.30985 -3.56612,8.88485 -0.96573,3.575 -3.11831,8.6302 -4.78351,11.2337 -2.86846,4.4848 -11.34566,11.7663 -13.69841,11.7663 -1.91934,0 -4.31491,5.9349 -3.63855,9.0143 0.3465,1.5776 0.11875,3.8237 -0.50611,4.9912 -0.936223,1.7494 -1.695683,2.0021 -4.316569,1.4367 -1.74926,-0.3775 -4.77098,-1.491 -6.71494,-2.4746 -2.58498,-1.3079 -4.01747,-1.518 -5.33244,-0.7821 -0.98888,0.5534 -3.22377,0.7387 -4.96642,0.4118 -2.02888,-0.3807 -5.06022,0.1244 -8.42829,1.4041 -6.59623,2.5064 -7.8992,2.5009 -9.2586,-0.039 z m 27.67513,-43.4191 c -50.29304,46.2627 -25.14652,23.1314 0,0 z"
       id="path5468"
       inkscape:connector-curvature="0"
       sodipodi:nodetypes="cssssssssssssscssssssssscsssssssssssscccc" />
    <g
       id="g5486"
       transform="translate(-2.5,4)">
      <path
         style="fill:#bac2d4"
         d="m 56.477633,1025.6281 c -0.59983,-1.1208 -0.78989,-2.9852 -0.42237,-4.1431 1.17211,-3.693 -1.41782,-9.2891 -5.25563,-11.3559 -7.66768,-4.1293 -15.365013,-15.81246 -16.449213,-24.96688 -0.193917,-1.63734 -1.140077,-3.76883 -2.102577,-4.73665 -2.117332,-2.12903 -2.354584,-9.01302 -0.367466,-10.66218 0.999126,-0.8292 1.498789,-4.67636 1.801733,-13.87245 0.387832,-11.77287 0.654038,-13.21142 3.557643,-19.22504 3.1219,-6.46575 10.66005,-15.48764 12.16394,-14.55819 0.43345,0.26789 2.06615,-0.84693 3.62822,-2.47737 2.93182,-3.06016 5.03332,-3.76227 5.65737,-1.89012 0.19696,0.59088 2.44101,-0.75912 4.98678,-3 2.54578,-2.24088 4.89713,-4.07432 5.22523,-4.07432 0.3281,0 0.59655,1.38064 0.59655,3.06809 l 0,3.0681 2.90437,-2.0681 c 3.53909,-2.52005 4.08704,-2.5623 4.12604,-0.31809 0.0265,1.52448 0.17436,1.49226 1.14748,-0.25 0.61439,-1.1 1.24615,-2.15795 1.40391,-2.35099 0.15776,-0.19304 1.82137,0.81946 3.69691,2.25 3.9719,3.02951 4.46311,3.13509 4.89797,1.05267 0.26475,-1.26783 0.93913,-1.09268 3.72257,0.96678 1.86958,1.3833 3.819,2.25567 4.33203,1.9386 1.71242,-1.05833 11.846457,6.90522 15.783137,12.40273 5.90517,8.24646 7.47887,13.86039 7.48249,26.69259 0.003,10.02183 0.19426,11.14372 2.25309,13.20454 2.71869,2.72131 2.88231,6.24035 0.43975,9.45822 -0.99564,1.31167 -2.60039,5.30986 -3.56612,8.88486 -0.96573,3.575 -3.11831,8.63014 -4.78351,11.23365 -2.86846,4.48475 -11.34567,11.76635 -13.698417,11.76635 -1.91934,0 -4.31491,5.9349 -3.63855,9.0143 0.3465,1.5776 0.11875,3.8237 -0.50611,4.9912 -0.93622,1.7494 -1.69568,2.0021 -4.31657,1.4366 -1.74926,-0.3774 -4.77098,-1.4909 -6.71494,-2.4745 -2.58498,-1.3079 -4.01747,-1.518 -5.33244,-0.7821 -0.98888,0.5534 -3.22377,0.7387 -4.96642,0.4117 -2.02888,-0.3806 -5.06022,0.1245 -8.42829,1.4042 -6.59623,2.5064 -7.8992,2.5009 -9.2586,-0.039 z m 27.67513,-43.41908 c -50.29304,46.26268 -25.14652,23.13138 0,0 z"
         id="path4570"
         inkscape:connector-curvature="0"
         sodipodi:nodetypes="cssssssssssssscssssssssscsssssssssssscccc" />
      <path
         style="fill:#b3bdd0"
         d="m 57.017883,1026.0431 c -1.11662,-1.1166 -1.42881,-2.5161 -0.99843,-4.4756 0.96348,-4.3867 -1.31036,-9.333 -5.27092,-11.4659 -7.33085,-3.948 -14.68283,-15.01358 -15.906506,-23.94126 -0.333314,-2.43179 -1.44711,-5.1826 -2.475104,-6.11292 -2.205913,-1.99633 -2.460581,-7.08696 -0.495716,-9.90902 0.908764,-1.30522 1.516422,-6.03743 1.796248,-13.98852 0.382197,-10.85988 0.72038,-12.65174 3.514848,-18.62337 3.02113,-6.45601 9.55331,-14.86061 11.54989,-14.86061 0.55089,0 2.56384,-1.37165 4.47321,-3.0481 2.75358,-2.41768 3.76258,-2.80661 4.87851,-1.88047 1.12083,0.93021 2.22156,0.43165 5.4133,-2.4519 4.76601,-4.3058 5.76428,-4.47027 6.18421,-1.01883 l 0.31642,2.6007 2.65773,-2.1007 c 3.35051,-2.64828 3.82635,-2.63011 3.90995,0.1493 0.0662,2.19907 0.0932,2.19341 1.19651,-0.25 0.62086,-1.375 1.24225,-2.66435 1.38087,-2.86522 0.13862,-0.20086 1.96269,1.04895 4.05349,2.77737 2.93634,2.42741 3.87503,2.79499 4.12477,1.61521 0.45181,-2.13432 1.56176,-1.91566 5.01173,0.9873 1.96466,1.65315 3.12674,2.09998 3.39198,1.30426 0.59661,-1.78985 6.595507,2.21487 12.045307,8.04115 8.58629,9.17943 12.45374,20.748 11.48103,34.34281 -0.45819,6.40379 -0.29054,7.35131 1.56677,8.85527 2.56628,2.07804 2.81025,8.0353 0.4365,10.65826 -0.90384,0.99874 -2.12827,3.97969 -2.72095,6.62433 -0.59268,2.64464 -2.14825,6.92128 -3.45684,9.50365 -2.5677,5.06711 -10.87115,13.47881 -14.41593,14.60391 -2.672667,0.8483 -5.358177,5.7653 -5.123947,9.3816 0.4778,7.3764 -0.94975,8.0935 -9.35454,4.6986 -3.98399,-1.6092 -6.4767,-2.1362 -7.10969,-1.5032 -1.30105,1.301 -4.90974,1.2397 -6.25576,-0.1063 -0.7747,-0.7747 -2.17736,-0.5316 -4.95,0.8581 -6.03384,3.0241 -8.98904,3.46 -10.84894,1.6001 z m 12.72996,-18.0395 c -0.6875,-0.2774 -1.8125,-0.2774 -2.5,0 -0.6875,0.2774 -0.125,0.5044 1.25,0.5044 1.375,0 1.9375,-0.227 1.25,-0.5044 z m 15.47917,0.058 c -0.3323,-0.3323 -1.1948,-0.3678 -1.91667,-0.079 -0.79773,0.3192 -0.56078,0.5562 0.60417,0.6041 1.05416,0.043 1.64479,-0.1929 1.3125,-0.5252 z m -28.72917,-4.7734 c 0,-0.2076 -0.7875,-0.9951 -1.75,-1.75 -1.58606,-1.2438 -1.62143,-1.2085 -0.37756,0.3776 1.30637,1.6657 2.12756,2.1955 2.12756,1.3724 z m 31.34377,-3.67953 c 2.11408,-0.59876 3.66377,-1.26866 3.44377,-1.48866 -0.22,-0.22 -2.16388,0.087 -4.31974,0.68229 -4.16297,1.14945 -20.5997,0.70292 -23.9678,-0.65112 -1.1,-0.44222 -1.67613,-0.44598 -1.2803,-0.008 0.39584,0.43763 3.09584,1.39753 6,2.13312 5.58066,1.4134 13.73185,1.1432 20.12407,-0.66729 z m -34.99869,-1.486 c -0.32569,-0.84872 -0.80663,-1.32866 -1.06875,-1.06653 -0.26213,0.26213 -0.17998,0.95654 0.18255,1.54313 0.98605,1.59543 1.56238,1.28551 0.8862,-0.4766 z m 7.65492,-0.92169 c 0,-0.25565 -1.0125,-0.95547 -2.25,-1.55516 -2.16063,-1.04704 -2.17289,-1.02858 -0.30887,0.46481 2.04026,1.63459 2.55887,1.85557 2.55887,1.09035 z m 19.75,-0.26365 c -2.0625,-0.21575 -5.4375,-0.21575 -7.5,0 -2.0625,0.21574 -0.375,0.39226 3.75,0.39226 4.125,0 5.8125,-0.17652 3.75,-0.39226 z m -12.02083,-0.8757 c -0.3323,-0.33229 -1.1948,-0.36782 -1.91667,-0.0789 -0.79773,0.31923 -0.56078,0.55618 0.60417,0.60417 1.05416,0.0434 1.64479,-0.19293 1.3125,-0.52522 z m 19,0 c -0.3323,-0.33229 -1.1948,-0.36782 -1.91667,-0.0789 -0.79773,0.31923 -0.56078,0.55618 0.60417,0.60417 1.05416,0.0434 1.64479,-0.19293 1.3125,-0.52522 z m 9.39839,-1.14583 c 1.24387,-1.58606 1.2085,-1.62143 -0.37756,-0.37756 -1.66575,1.30637 -2.19548,2.12756 -1.37244,2.12756 0.20765,0 0.99515,-0.7875 1.75,-1.75 z m -45.43457,-2.98097 c -0.25354,-0.97297 -0.47766,-0.41903 -0.49804,1.23097 -0.0204,1.65 0.18706,2.44606 0.46099,1.76903 0.27392,-0.67703 0.29059,-2.02703 0.0371,-3 z m 13.22368,3.35814 c -1.02094,-0.9135 -6.91667,-3.6282 -6.91667,-3.18479 0,0.62161 5.18459,3.46377 6.41667,3.51758 0.50416,0.022 0.72916,-0.12773 0.5,-0.33279 z m 36.207417,-6.89384 c -0.987617,-0.98027 -1.102477,-0.8654 -0.5598,0.5598 0.37553,0.98622 0.93469,1.54122 1.24258,1.23333 0.30789,-0.30789 6.4e-4,-1.11479 -0.68278,-1.79313 z m -16.236197,-2.66404 c 2.12566,-1.31373 0.3679,-4.86704 -2.68322,-5.42411 -4.58452,-0.83704 -10.341,-0.64259 -12.31926,0.41614 -1.81435,0.97101 -2.54181,3.94894 -1.2743,5.21646 0.91433,0.91432 14.7467,0.73715 16.27678,-0.20849 z m -14.40752,-1.10106 c -0.38836,-0.62837 -0.23556,-1.61304 0.33954,-2.18815 1.3439,-1.3439 4.47714,-0.17168 3.93038,1.47044 -0.5566,1.67169 -3.38637,2.14733 -4.26992,0.71771 z m 9.01963,0.0318 c -0.82558,-1.33581 0.28388,-3 2,-3 2.0399,0 2.96943,2.08857 1.37812,3.09649 -1.80685,1.14444 -2.62564,1.12105 -3.37812,-0.0965 z m 20,-2 c 0.99549,-1.1 1.584977,-2 1.309977,-2 -0.275,0 -1.314487,0.9 -2.309977,2 -0.99549,1.1 -1.58498,2 -1.30998,2 0.275,0 1.31449,-0.9 2.30998,-2 z m -43.5,0.65499 c 0,-0.18976 -1.0125,-1.20225 -2.25,-2.25 l -2.25,-1.90499 1.90499,2.25 c 1.79022,2.11445 2.59501,2.70524 2.59501,1.90499 z m 10.67534,-2.31298 c -1.04899,-1.04898 1.23024,-3.16036 3.11143,-2.88229 0.94228,0.13928 1.15073,0.0598 0.46323,-0.17656 -0.6875,-0.23639 -1.25,-1.37387 -1.25,-2.52774 0,-2.56195 -2.73314,-5.76075 -4.90499,-5.74067 -0.99589,0.009 -0.65595,0.48982 0.90499,1.27953 1.78955,0.90536 2.5,2.07797 2.5,4.12627 0,3.83299 -2.70431,5.55608 -5.74654,3.6615 -2.03664,-1.26833 -2.1262,-1.24935 -0.93084,0.19726 0.72744,0.88035 2.30244,1.79136 3.5,2.02448 1.19756,0.23312 2.36488,0.48513 2.59405,0.56003 0.22916,0.0749 0.12057,-0.15991 -0.24133,-0.52181 z m 26.49291,-1.99427 c 1.87435,-1.69627 2.45216,-4.84627 1.04813,-5.71401 -0.43099,-0.26636 -0.76849,0.66256 -0.75,2.06428 0.0445,3.37619 -2.76163,5.22321 -5.41656,3.56518 -1.07641,-0.67223 -2.19073,-0.84421 -2.47627,-0.38219 -1.40269,2.26959 5.15711,2.67273 7.5947,0.46674 z m -57.91825,-0.01 c -1.431609,-0.57767 -1.729479,-7.33772 -0.323324,-7.33772 0.509672,0 1.115503,0.5625 1.346291,1.25 0.241253,0.71867 0.372863,0.61241 0.309633,-0.25 -0.201163,-2.74342 -3.06883,-1.62025 -3.407174,1.33447 -0.406051,3.54602 0.377775,5.68919 2.043189,5.58658 1.003642,-0.0618 1.010444,-0.18827 0.03139,-0.58333 z m 67.556867,-1.86418 c -0.30789,-0.30789 -0.86705,0.24711 -1.24258,1.23333 -0.54268,1.4252 -0.42782,1.54006 0.5598,0.5598 0.68342,-0.67834 0.99067,-1.48524 0.68278,-1.79313 z m 17.59012,1.69313 c 0.28327,-0.45834 -0.12038,-0.83334 -0.89699,-0.83334 -0.77661,0 -1.18026,0.375 -0.89699,0.83334 0.28326,0.45833 0.68691,0.83333 0.89699,0.83333 0.21008,0 0.61373,-0.375 0.89699,-0.83333 z m -36.667817,-0.77084 c -0.3323,-0.33229 -1.1948,-0.36781 -1.91667,-0.079 -0.79773,0.31923 -0.56078,0.55619 0.60417,0.60417 1.05416,0.0434 1.64479,-0.19293 1.3125,-0.52522 z m -33.06689,-4.64583 c -0.27741,-0.6875 -0.50439,-0.125 -0.50439,1.25 0,1.375 0.22698,1.9375 0.50439,1.25 0.27741,-0.6875 0.27741,-1.8125 0,-2.5 z m 36.69533,-1.75 c 0.99355,-1.30457 0.91438,-1.32119 -0.60761,-0.12755 -0.9625,0.75484 -1.6978,2.32984 -1.634,3.5 0.11018,2.02078 0.14067,2.02718 0.60761,0.12755 0.27038,-1.1 1.00568,-2.675 1.634,-3.5 z m 34.325497,2.8125 c -0.31922,-0.79773 -0.55618,-0.56077 -0.60416,0.60417 -0.0434,1.05416 0.19292,1.64479 0.52522,1.3125 0.33229,-0.33229 0.36781,-1.19479 0.0789,-1.91667 z m -18,-1 c -0.31922,-0.79773 -0.55618,-0.56077 -0.60416,0.60417 -0.0434,1.05416 0.19292,1.64479 0.52522,1.3125 0.33229,-0.33229 0.36781,-1.19479 0.0789,-1.91667 z m 17.31689,-1.8125 c 0,-0.55 -0.7875,-0.99311 -1.75,-0.98469 -1.49555,0.0131 -1.5319,0.15627 -0.25,0.98469 1.88721,1.21961 2,1.21961 2,0 z"
         id="path4568"
         inkscape:connector-curvature="0" />
      <path
         style="fill:#b2b9cc"
         d="m 57.574163,1026.7131 c -0.86147,-0.5325 -1.35127,-2.3536 -1.26318,-4.6969 0.21701,-5.7723 -1.6551,-9.8104 -5.51094,-11.8869 -7.20667,-3.881 -14.75727,-15.20856 -15.953098,-23.93307 -0.336018,-2.45153 -1.452028,-5.21849 -2.480022,-6.14881 -2.205913,-1.99633 -2.460581,-7.08696 -0.495716,-9.90902 0.908764,-1.30522 1.516422,-6.03743 1.796248,-13.98852 0.382197,-10.85988 0.72038,-12.65174 3.514848,-18.62337 3.02113,-6.45601 9.55331,-14.86061 11.54989,-14.86061 0.55089,0 2.56384,-1.37165 4.47321,-3.0481 2.75358,-2.41768 3.76258,-2.80661 4.87851,-1.88047 1.12083,0.93021 2.22156,0.43165 5.4133,-2.4519 4.76601,-4.3058 5.76428,-4.47026 6.18421,-1.01883 l 0.31642,2.6007 2.65773,-2.1007 c 3.35051,-2.64828 3.82635,-2.63011 3.90995,0.1493 0.0662,2.19907 0.0932,2.19341 1.19651,-0.25 0.62086,-1.375 1.24225,-2.66435 1.38087,-2.86522 0.13862,-0.20086 1.96269,1.04895 4.05349,2.77737 2.93634,2.42741 3.87503,2.79499 4.12477,1.61521 0.45181,-2.13432 1.56176,-1.91566 5.01173,0.9873 1.96466,1.65315 3.12674,2.09998 3.39198,1.30426 0.59661,-1.78985 6.595507,2.21487 12.045307,8.04115 8.63719,9.23386 12.53616,20.95612 11.41568,34.32127 -0.53853,6.42356 -0.39496,7.23538 1.55942,8.81794 2.63759,2.13579 2.91881,8.05455 0.5092,10.71713 -0.90384,0.99874 -2.12827,3.97969 -2.72095,6.62433 -0.59268,2.64464 -2.14825,6.92128 -3.45684,9.50365 -2.5677,5.06711 -10.87115,13.47881 -14.41593,14.60391 -2.672667,0.8483 -5.358177,5.7653 -5.123947,9.3816 0.4778,7.3764 -0.94975,8.0935 -9.35454,4.6986 -3.98399,-1.6092 -6.4767,-2.1362 -7.10969,-1.5032 -1.30105,1.301 -4.90974,1.2397 -6.25576,-0.1063 -0.7747,-0.7747 -2.17736,-0.5316 -4.95,0.8581 -5.13203,2.5721 -8.57517,3.3315 -10.29266,2.2701 z m 9.12108,-19.606 c -2.91643,-0.7849 -6.29143,-1.9354 -7.5,-2.5566 -1.5196,-0.781 -1.88149,-0.7912 -1.17324,-0.033 1.43988,1.5417 8.49001,4.0065 11.47584,4.012 1.375,0 0.11383,-0.6375 -2.8026,-1.4225 z m 11.04046,0.2517 c -1.21636,-0.5427 -2.6838,-0.5427 -3.65365,0 -1.20257,0.673 -0.67799,0.9071 2.03282,0.9071 3.01359,0 3.29753,-0.1589 1.62083,-0.9071 z m 11.27447,-0.2395 c 2.92608,-0.8506 5.92034,-2.3131 6.65391,-3.25 1.19995,-1.5325 1.15872,-1.5662 -0.41096,-0.3353 -0.9596,0.7524 -4.7846,2.1878 -8.5,3.1898 -3.71541,1.002 -5.92454,1.8488 -4.90919,1.8819 1.01535,0.033 4.24016,-0.6358 7.16624,-1.4864 z m -33.71736,-5.2034 c -0.83325,-0.9625 -2.01431,-2.65 -2.62458,-3.75 -0.61026,-1.1 -1.12326,-1.49819 -1.13998,-0.88486 -0.0334,1.22366 3.76358,6.38486 4.69716,6.38486 0.32032,0 -0.0993,-0.7875 -0.9326,-1.75 z m 32.88002,-0.6127 c 1.55375,-0.8205 4.40001,-2.90994 6.32501,-4.64331 3.27084,-2.94523 3.29894,-3.01937 0.42923,-1.13231 -4.78796,3.14845 -11.61291,4.42198 -21.23283,3.96205 -7.24176,-0.34623 -9.64413,-0.90299 -13.71575,-3.17866 l -4.93621,-2.7589 2.47778,2.65193 c 2.78535,2.98111 7.0162,5.4101 11.47778,6.5896 4.3394,1.1471 15.87844,0.2502 19.17499,-1.4904 z m -18.86249,-0.3204 c 0.72187,-0.2889 1.58437,-0.2534 1.91667,0.079 0.33229,0.3323 -0.25834,0.5687 -1.3125,0.5253 -1.16495,-0.048 -1.4019,-0.285 -0.60417,-0.6042 z m 13,0 c 0.72187,-0.2889 1.58438,-0.2534 1.91667,0.079 0.33229,0.3323 -0.25834,0.5687 -1.3125,0.5253 -1.16495,-0.048 -1.4019,-0.285 -0.60417,-0.6042 z m 18.148147,-2.22189 c 0.92036,-2.22196 0.94067,-3.39697 0.0825,-4.77146 -1.025857,-1.643 -1.079257,-1.60573 -0.53932,0.37647 0.33356,1.22457 -0.125267,3.60113 -1.034847,5.36006 -0.89877,1.73802 -1.20555,2.89522 -0.68173,2.57142 0.52381,-0.3237 1.50186,-1.9151 2.173447,-3.53649 z m -9.210647,-3.93023 c 2.3375,-1.21299 4.25,-2.87128 4.25,-3.68511 0,-1.80847 1.13398,-1.89524 3.00177,-0.22967 1.17252,1.04557 1.20805,0.99132 0.21725,-0.33169 -0.6515,-0.86992 -3.49361,-2.83844 -6.31582,-4.37448 -4.16537,-2.26708 -5.29519,-2.53407 -6.00193,-1.41832 -0.69493,1.09708 -0.87373,1.03571 -0.88596,-0.30408 -0.0298,-3.26564 -2.81686,-4.74819 -8.79861,-4.68031 -6.78527,0.077 -9.2167,1.15704 -9.2167,4.09406 0,1.60582 -0.29101,1.87381 -1.12697,1.03784 -0.78791,-0.7879 -1.9156,-0.82713 -3.74817,-0.13039 -6.51423,2.4767 -7.28779,6.68751 -1.75423,9.54903 5.46941,2.82834 7.9326,3.25447 17.12937,2.9634 6.93292,-0.21943 9.97612,-0.79138 13.25,-2.49028 z m -19.9375,-7.8479 c 0.72187,-0.28887 1.58437,-0.25334 1.91667,0.0789 0.33229,0.3323 -0.25834,0.56865 -1.3125,0.52522 -1.16495,-0.048 -1.4019,-0.28494 -0.60417,-0.60416 z m 9,0 c 0.72187,-0.28887 1.58437,-0.25334 1.91667,0.0789 0.33229,0.3323 -0.25834,0.56865 -1.3125,0.52522 -1.16495,-0.048 -1.4019,-0.28494 -0.60417,-0.60416 z m -10.33213,-2.34865 c -0.38836,-0.62837 -0.23556,-1.61304 0.33954,-2.18815 1.3439,-1.3439 4.47714,-0.17168 3.93038,1.47044 -0.5566,1.67169 -3.38637,2.14733 -4.26992,0.71771 z m 9.01963,0.0318 c -0.82558,-1.33581 0.28388,-3 2,-3 2.0399,0 2.96943,2.08857 1.37812,3.09649 -1.80685,1.14444 -2.62564,1.12105 -3.37812,-0.0965 z m -27.80701,7.26904 c -0.25354,-0.97297 -0.47766,-0.41904 -0.49804,1.23096 -0.0204,1.65 0.18706,2.44607 0.46099,1.76904 0.27392,-0.67704 0.29059,-2.02704 0.0371,-3 z m 3.30701,-0.26904 c 0.5887,-1.1 0.84537,-2 0.57037,-2 -0.275,0 -0.98167,0.9 -1.57037,2 -0.5887,1.1 -0.84537,2 -0.57037,2 0.275,0 0.98167,-0.9 1.57037,-2 z m 45.00614,-4.49346 c -2.29885,-2.44702 -2.30595,-2.52065 -0.45773,-4.74606 l 1.877347,-2.26048 -2.355147,2.17005 -2.35515,2.17005 2.39227,2.94817 c 1.31575,1.62149 2.581537,2.7807 2.812877,2.57601 0.23134,-0.20469 -0.63018,-1.49067 -1.914467,-2.85774 z m -44.93024,-4.92574 c -1.23551,-1.31515 -2.86328,-4.12134 -3.61725,-6.23598 -0.75398,-2.11465 -1.39062,-3.02773 -1.41476,-2.02908 -0.0548,2.26508 1.57847,5.49544 4.27451,8.45462 l 2.06848,2.27036 -2.19344,1.53635 c -1.20639,0.84499 -2.19344,1.93934 -2.19344,2.43189 0,0.49255 1.19752,-0.21427 2.66115,-1.57072 l 2.66114,-2.46627 -2.24639,-2.39117 z m 11.6741,-1.72526 c -0.13757,-0.62978 1.32397,-1.34205 3.25,-1.58384 4.31098,-0.54118 5.26837,-1.2717 1.66667,-1.2717 -2.07011,0 -2.66667,-0.48572 -2.66667,-2.17125 0,-2.48899 -2.66722,-5.82875 -4.65499,-5.82875 -1.95833,0 -5.358,3.71209 -5.26606,5.75 0.0505,1.11997 0.43505,0.77644 1.06807,-0.95421 1.89061,-5.16885 8.2988,-4.31669 7.65354,1.01776 -0.42968,3.55214 -3.19316,5.04582 -6.0471,3.2685 -2.03664,-1.26833 -2.1262,-1.24935 -0.93084,0.19726 0.72744,0.88035 2.30244,1.79136 3.5,2.02448 1.19756,0.23312 2.28988,0.48513 2.42738,0.56003 0.1375,0.0749 0.1375,-0.37882 0,-1.00828 z m 26.5,-1.65155 c 2.13611,-1.848 2.23287,-4.18406 0.2801,-6.76286 -1.33374,-1.76132 -1.36255,-1.64751 -0.31102,1.22871 1.31177,3.58803 -0.0827,6.33016 -3.21908,6.33016 -4.50492,0 -5.25845,-6.56347 -1,-8.71022 1.375,-0.69316 1.86043,-1.26693 1.07874,-1.27503 -2.274,-0.0236 -5.07874,3.09124 -5.07874,5.64024 0,1.94616 -0.55278,2.37223 -3.25,2.50505 l -3.25,0.16004 3.17553,0.39776 c 1.74654,0.21878 3.67558,1.00031 4.28677,1.73673 1.28446,1.54769 4.73823,0.95502 7.2877,-1.25058 z m -7.37756,0.046 c -1.24387,-1.58606 -1.2085,-1.62143 0.37756,-0.37756 1.66575,1.30637 2.19548,2.12756 1.37244,2.12756 -0.20765,0 -0.99515,-0.7875 -1.75,-1.75 z m -49.523103,-0.718 c 0.309823,-0.80738 0.06344,-1.77691 -0.547519,-2.15451 -0.647417,-0.40012 -0.830982,-0.23372 -0.440015,0.39888 0.368952,0.59698 0.21348,1.36806 -0.345491,1.71353 -0.6157,0.38052 -1.016312,-0.77479 -1.016312,-2.93091 0,-3.4366 1.412693,-4.8717 2.272967,-2.30901 0.241253,0.71867 0.372863,0.6124 0.309633,-0.25 -0.201163,-2.74342 -3.06883,-1.62025 -3.407174,1.33447 -0.545364,4.76262 1.777983,7.83528 3.173911,4.19755 z m 67.20207,-4.66094 0.39358,-4.37108 -0.92297,4.26536 c -0.50764,2.34595 -1.23628,4.82095 -1.6192,5.5 -0.52294,0.92734 -0.39117,0.95365 0.52939,0.10572 0.67409,-0.6209 1.40273,-3.0959 1.6192,-5.5 z m 16.84558,5.29559 c 0.28327,-0.45834 -0.12038,-0.83334 -0.89699,-0.83334 -0.77661,0 -1.18026,0.375 -0.89699,0.83334 0.28326,0.45833 0.68691,0.83333 0.89699,0.83333 0.21008,0 0.61373,-0.375 0.89699,-0.83333 z m 1.20405,-5.6201 c -0.71982,-2.86802 -3.06126,-3.39561 -4.01694,-0.90513 -0.49781,1.29726 -0.34369,1.40392 0.73502,0.50868 1.64692,-1.36682 2.68088,-0.5248 2.68088,2.18321 0,1.1 0.27904,1.72096 0.6201,1.37991 0.34105,-0.34106 0.33248,-1.76606 -0.0191,-3.16667 z M 54.625393,962.9159 c 1.24388,-1.58606 1.20851,-1.62143 -0.37755,-0.37756 -0.9625,0.75485 -1.75,1.54235 -1.75,1.75 0,0.82304 0.82119,0.29331 2.12755,-1.37244 z m 21.37245,0.75 c -0.33992,-0.55 -1.15398,-0.99311 -1.80902,-0.98469 -0.71561,0.009 -0.59227,0.40223 0.30902,0.98469 1.92112,1.24152 2.2673,1.24152 1.5,0 z m 21,-2 c -0.33992,-0.55 -1.15398,-0.99311 -1.80902,-0.98469 -0.71561,0.009 -0.59227,0.40223 0.30902,0.98469 1.92112,1.24152 2.2673,1.24152 1.5,0 z m -31.73834,-1.68708 c -0.95609,-0.2503 -2.75609,-0.25938 -4,-0.0202 -1.24391,0.23919 -0.46166,0.44398 1.73834,0.45508 2.2,0.0111 3.21775,-0.18461 2.26166,-0.4349 z m 25.98834,-0.002 c -0.9625,-0.25153 -2.5375,-0.25153 -3.5,0 -0.9625,0.25153 -0.175,0.45732 1.75,0.45732 1.925,0 2.7125,-0.20579 1.75,-0.45732 z"
         id="path4566"
         inkscape:connector-curvature="0" />
      <path
         style="fill:#63c1f2"
         d="m 57.747843,1026.9936 c -0.71606,-0.2832 -1.25,-2.2438 -1.25,-4.59 0,-6.493 -1.8228,-10.1154 -6.61601,-13.1478 -7.61658,-4.8186 -13.84378,-14.36952 -15.034888,-23.05957 -0.336018,-2.45153 -1.452028,-5.21849 -2.480022,-6.14881 -2.272956,-2.057 -2.476444,-7.6313 -0.355986,-9.75176 1.156516,-1.15652 1.57075,-4.41369 1.757753,-13.82143 0.227639,-11.45205 0.462443,-12.76912 3.375113,-18.93171 3.13185,-6.62633 9.58586,-14.84074 11.7204,-14.91726 0.6235,-0.0224 2.67713,-1.36024 4.56362,-2.97308 2.55993,-2.1886 3.75811,-2.66011 4.72359,-1.85883 0.97022,0.80521 2.3452,0.17349 5.50002,-2.52692 4.98187,-4.2643 5.84641,-4.42704 5.84641,-1.10053 0,3.06021 0.70356,3.12711 3.66161,0.34817 l 2.29051,-2.15182 0.91622,2.40182 0.91622,2.40183 0.71613,-2.75 c 0.88556,-3.40064 1.1648,-3.38385 5.49931,0.33061 2.72846,2.33815 3.57127,2.65985 3.82332,1.45935 0.45122,-2.14912 1.55713,-1.93215 5.02499,0.98585 1.81851,1.53018 3.25293,2.1194 3.63896,1.49478 0.85466,-1.38287 8.097637,3.67067 12.934757,9.02478 7.44136,8.2367 11.30451,20.8763 10.1725,33.2828 -0.56945,6.24102 -0.43262,6.98235 1.59122,8.62116 2.87528,2.32826 2.92423,7.58624 0.10772,11.57065 -1.15859,1.63901 -2.41116,4.75909 -2.78349,6.93351 -1.39917,8.17128 -8.15691,17.49721 -16.01641,22.10311 -4.877787,2.8586 -6.493567,5.8422 -6.493567,11.9904 0,2.8343 -0.45438,4.4949 -1.25,4.5681 -2.72838,0.2514 -5.44638,-0.3731 -9.67765,-2.2235 -3.0163,-1.3191 -4.75353,-1.6104 -5.45,-0.914 -0.56229,0.5623 -1.96735,1.0224 -3.12235,1.0224 -1.155,0 -2.56006,-0.4601 -3.12235,-1.0224 -0.69647,-0.6964 -2.4337,-0.4118 -5.45,0.8931 -5.66519,2.4507 -8.11866,3.0736 -9.67765,2.457 z m 20.27396,-18.4987 c 2.92368,1.3321 12.52653,-1.023 17.56975,-4.309 3.51249,-2.2886 6.906287,-7.67974 6.906287,-10.97079 0,-2.2916 -2.694077,-7.27445 -4.228957,-7.82169 -0.91156,-0.325 -0.67003,-1.12831 0.854,-2.84034 4.966547,-5.57922 5.693247,-11.01807 2.222487,-16.63388 -3.808177,-6.16177 -10.947367,-7.72709 -19.836797,-4.34938 -4.92645,1.87191 -5.09501,1.87191 -10.02146,0 -9.34806,-3.55198 -17.02503,-1.60303 -20.5521,5.21757 -2.35497,4.55402 -1.44722,11.2148 2.02187,14.83575 l 2.68758,2.80523 -2.57331,2.57331 c -4.84941,4.84941 -2.2659,13.60352 5.32262,18.03542 4.72602,2.7602 13.12072,4.5961 15.48056,3.3856 1.2231,-0.6274 2.66725,-0.6023 4.14747,0.072 z m -13.02396,-10.165 c -2.2,-0.72316 -5.125,-1.939 -6.5,-2.70187 -1.375,-0.76287 -2.8375,-1.29143 -3.25,-1.17458 -1.48466,0.42055 -0.7137,-3.58751 0.80194,-4.16911 0.85356,-0.32754 1.31418,-0.21083 1.02358,0.25937 -0.2906,0.47019 0.27087,1.57819 1.24771,2.46221 7.14527,6.46638 29.98682,6.1438 37.14448,-0.52457 1.83611,-1.71059 2.4039,-1.83843 3.1229,-0.70309 1.2432,1.96311 1.11503,3.00799 -0.34061,2.77669 -0.6875,-0.10925 -3.5,0.85589 -6.25,2.14474 -6.09447,2.85631 -20.60469,3.73241 -27,1.63021 z m 5.41768,-13.71488 c -1.07269,-0.66296 -1.12577,-1.14103 -0.22654,-2.04026 1.25662,-1.25662 4.30886,-0.58171 4.30886,0.95276 0,1.39976 -2.49965,2.06564 -4.08232,1.0875 z m 9,0 c -1.07269,-0.66296 -1.12577,-1.14103 -0.22654,-2.04026 1.25662,-1.25662 4.30886,-0.58171 4.30886,0.95276 0,1.39976 -2.49965,2.06564 -4.08232,1.0875 z m -14.1592,-0.74833 c -1.45123,-0.28681 -1.26048,-0.74895 1.14435,-2.77248 1.58724,-1.33557 3.94592,-2.38346 5.24153,-2.32863 l 2.35564,0.0997 -2.492,0.69352 c -1.3706,0.38143 -2.9456,1.58419 -3.5,2.6728 -0.56737,1.11406 -1.76929,1.82883 -2.74952,1.63511 z m 20.24152,-0.84269 c 0,-0.80005 -1.4625,-2.09031 -3.25,-2.86723 -2.67313,-1.16186 -2.85755,-1.41954 -1.03896,-1.45173 1.21608,-0.0215 3.01608,0.79917 4,1.82377 0.98393,1.02461 2.45235,2.07074 3.26317,2.32474 1.03036,0.32278 0.80455,0.63694 -0.75,1.04346 -1.54616,0.40434 -2.22421,0.1382 -2.22421,-0.87301 z m -25.20127,-5.90049 c -0.99552,-2.18493 -0.84995,-2.85083 1.03534,-4.73612 1.73642,-1.73642 2.55563,-1.96687 3.92983,-1.10548 2.15789,1.35264 2.78637,5.01603 1.19042,6.93903 -1.86832,2.25119 -4.87401,1.71533 -6.15559,-1.09743 z m 26.24695,1.09743 c -1.58283,-1.90719 -0.97345,-5.58269 1.14578,-6.91088 1.99319,-1.24918 5.80854,1.58239 5.80854,4.31083 0,3.64945 -4.64278,5.38528 -6.95432,2.60005 z m 14.177637,-8.56906 c -2.392437,-3.8309 -6.942857,-5.24735 -14.625277,-4.55256 -9.7105,0.87821 -11.19388,0.8814 -18.25883,0.0393 -7.44429,-0.88731 -10.22717,-0.27933 -14.26214,3.11587 -3.46067,2.91197 -3.7493,2.61202 -1.56014,-1.62133 3.06162,-5.92054 10.49974,-7.47267 19.47234,-4.06334 4.92645,1.8719 5.09501,1.8719 10.02146,0 8.95614,-3.40307 16.16606,-1.70462 19.566307,4.60927 1.95775,3.63532 1.66227,5.7009 -0.35372,2.47278 z m -65.003826,8.76402 c 0.989339,-2.85296 0.249728,-7.25 -1.219491,-7.25 -1.568328,0 -2.591871,4.51522 -1.605958,7.08447 0.671859,1.75084 2.243769,1.84293 2.825449,0.16553 z m 85.351746,-1.17783 c 0.77338,-3.08137 -0.30573,-6.57217 -2.03164,-6.57217 -1.79274,0 -2.371,1.85346 -1.79392,5.75 0.56699,3.82845 2.94288,4.33907 3.82556,0.82217 z"
         id="path4564"
         inkscape:connector-curvature="0" />
      <path
         style="fill:#5db7e6"
         d="m 57.747843,1026.9936 c -0.71606,-0.2832 -1.25,-2.2438 -1.25,-4.59 0,-6.493 -1.8228,-10.1154 -6.61601,-13.1478 -7.61658,-4.8186 -13.84378,-14.36952 -15.034888,-23.05957 -0.336018,-2.45153 -1.452028,-5.21849 -2.480022,-6.14881 -2.272956,-2.057 -2.476444,-7.6313 -0.355986,-9.75176 1.156516,-1.15652 1.57075,-4.41369 1.757753,-13.82143 0.227639,-11.45205 0.462443,-12.76912 3.375113,-18.93171 3.13185,-6.62633 9.58586,-14.84074 11.7204,-14.91726 0.6235,-0.0224 2.67713,-1.36024 4.56362,-2.97308 2.55993,-2.1886 3.75811,-2.66011 4.72359,-1.85883 0.97022,0.80521 2.3452,0.17349 5.50002,-2.52692 4.98187,-4.2643 5.84641,-4.42704 5.84641,-1.10053 0,3.06021 0.70356,3.12711 3.66161,0.34817 l 2.29051,-2.15182 0.91622,2.40182 0.91622,2.40183 0.71613,-2.75 c 0.88556,-3.40064 1.1648,-3.38385 5.49931,0.33061 2.72846,2.33815 3.57127,2.65985 3.82332,1.45935 0.45122,-2.14912 1.55713,-1.93215 5.02499,0.98585 1.81851,1.53018 3.25293,2.1194 3.63896,1.49478 0.85466,-1.38287 8.097637,3.67067 12.934757,9.02478 7.44136,8.2367 11.30451,20.8763 10.1725,33.2828 -0.56945,6.24102 -0.43262,6.98235 1.59122,8.62116 2.87528,2.32826 2.92423,7.58624 0.10772,11.57065 -1.15859,1.63901 -2.41116,4.75909 -2.78349,6.93351 -1.39917,8.17128 -8.15691,17.49721 -16.01641,22.10311 -4.877787,2.8586 -6.493567,5.8422 -6.493567,11.9904 0,2.8343 -0.45438,4.4949 -1.25,4.5681 -2.72838,0.2514 -5.44638,-0.3731 -9.67765,-2.2235 -3.0163,-1.3191 -4.75353,-1.6104 -5.45,-0.914 -0.56229,0.5623 -1.96735,1.0224 -3.12235,1.0224 -1.155,0 -2.56006,-0.4601 -3.12235,-1.0224 -0.69647,-0.6964 -2.4337,-0.4118 -5.45,0.8931 -5.66519,2.4507 -8.11866,3.0736 -9.67765,2.457 z m 1.91845,-10.5593 c -0.74207,-0.742 -0.87221,-0.3516 -0.43724,1.3118 0.35361,1.3522 0.8069,1.8055 1.05655,1.0565 0.24048,-0.7214 -0.0382,-1.7872 -0.61931,-2.3683 z m 9.52454,-2.4994 c -0.25354,-0.9729 -0.47766,-0.419 -0.49804,1.231 -0.0204,1.65 0.18706,2.4461 0.46099,1.769 0.27392,-0.677 0.29059,-2.027 0.037,-3 z m 13.96929,-0.519 c -0.27741,-0.6875 -0.50439,-0.125 -0.50439,1.25 0,1.375 0.22698,1.9375 0.50439,1.25 0.27741,-0.6875 0.27741,-1.8125 0,-2.5 z m 11.14459,-0.2765 c -0.30789,-0.3079 -0.86705,0.2471 -1.24258,1.2334 -0.54268,1.4252 -0.42782,1.54 0.5598,0.5598 0.68342,-0.6784 0.99067,-1.4853 0.68278,-1.7932 z m -33.53784,-3.1294 c -0.67703,-0.274 -2.02703,-0.2906 -3,-0.037 -0.97297,0.2535 -0.41903,0.4776 1.23097,0.498 1.65,0.02 2.44606,-0.1871 1.76903,-0.461 z m 34,0 c -0.67703,-0.274 -2.02703,-0.2906 -3,-0.037 -0.97297,0.2535 -0.41903,0.4776 1.23097,0.498 1.65,0.02 2.44606,-0.1871 1.76903,-0.461 z m -16.74507,-1.5151 c 2.92368,1.3321 12.52653,-1.023 17.56975,-4.309 3.51249,-2.2886 6.906287,-7.67974 6.906287,-10.97079 0,-2.2916 -2.694077,-7.27445 -4.228957,-7.82169 -0.91156,-0.325 -0.67003,-1.12831 0.854,-2.84034 4.966547,-5.57922 5.693247,-11.01807 2.222487,-16.63388 -3.808177,-6.16177 -10.947367,-7.72709 -19.836797,-4.34938 -4.92645,1.87191 -5.09501,1.87191 -10.02146,0 -9.34806,-3.55198 -17.02503,-1.60303 -20.5521,5.21757 -2.35497,4.55402 -1.44722,11.2148 2.02187,14.83575 l 2.68758,2.80523 -2.57331,2.57331 c -4.84941,4.84941 -2.2659,13.60352 5.32262,18.03542 4.72602,2.7602 13.12072,4.5961 15.48056,3.3856 1.2231,-0.6274 2.66725,-0.6023 4.14747,0.072 z m -13.02396,-10.165 c -2.2,-0.72316 -5.125,-1.939 -6.5,-2.70187 -1.375,-0.76287 -2.8375,-1.29143 -3.25,-1.17458 -1.48466,0.42055 -0.7137,-3.58751 0.80194,-4.16911 0.85356,-0.32754 1.31418,-0.21083 1.02358,0.25937 -0.2906,0.47019 0.27087,1.57819 1.24771,2.46221 7.14527,6.46638 29.98682,6.1438 37.14448,-0.52457 1.83611,-1.71059 2.4039,-1.83843 3.1229,-0.70309 1.2432,1.96311 1.11503,3.00799 -0.34061,2.77669 -0.6875,-0.10925 -3.5,0.85589 -6.25,2.14474 -6.09447,2.85631 -20.60469,3.73241 -27,1.63021 z m 5.41768,-13.71488 c -1.07269,-0.66296 -1.12577,-1.14103 -0.22654,-2.04026 1.25662,-1.25662 4.30886,-0.58171 4.30886,0.95276 0,1.39976 -2.49965,2.06564 -4.08232,1.0875 z m 9,0 c -1.07269,-0.66296 -1.12577,-1.14103 -0.22654,-2.04026 1.25662,-1.25662 4.30886,-0.58171 4.30886,0.95276 0,1.39976 -2.49965,2.06564 -4.08232,1.0875 z m -14.1592,-0.74833 c -1.45123,-0.28681 -1.26048,-0.74895 1.14435,-2.77248 1.58724,-1.33557 3.94592,-2.38346 5.24153,-2.32863 l 2.35564,0.0997 -2.492,0.69352 c -1.3706,0.38143 -2.9456,1.58419 -3.5,2.6728 -0.56737,1.11406 -1.76929,1.82883 -2.74952,1.63511 z m 20.24152,-0.84269 c 0,-0.80005 -1.4625,-2.09031 -3.25,-2.86723 -2.67313,-1.16186 -2.85755,-1.41954 -1.03896,-1.45173 1.21608,-0.0215 3.01608,0.79917 4,1.82377 0.98393,1.02461 2.45235,2.07074 3.26317,2.32474 1.03036,0.32278 0.80455,0.63694 -0.75,1.04346 -1.54616,0.40434 -2.22421,0.1382 -2.22421,-0.87301 z m -25.20127,-5.90049 c -0.99552,-2.18493 -0.84995,-2.85083 1.03534,-4.73612 1.73642,-1.73642 2.55563,-1.96687 3.92983,-1.10548 2.15789,1.35264 2.78637,5.01603 1.19042,6.93903 -1.86832,2.25119 -4.87401,1.71533 -6.15559,-1.09743 z m 26.24695,1.09743 c -1.58283,-1.90719 -0.97345,-5.58269 1.14578,-6.91088 1.99319,-1.24918 5.80854,1.58239 5.80854,4.31083 0,3.64945 -4.64278,5.38528 -6.95432,2.60005 z m 14.177637,-8.56906 c -2.392437,-3.8309 -6.942857,-5.24735 -14.625277,-4.55256 -9.7105,0.87821 -11.19388,0.8814 -18.25883,0.0393 -7.44429,-0.88731 -10.22717,-0.27933 -14.26214,3.11587 -3.46067,2.91197 -3.7493,2.61202 -1.56014,-1.62133 3.06162,-5.92054 10.49974,-7.47267 19.47234,-4.06334 4.92645,1.8719 5.09501,1.8719 10.02146,0 8.95614,-3.40307 16.16606,-1.70462 19.566307,4.60927 1.95775,3.63532 1.66227,5.7009 -0.35372,2.47278 z m -65.003826,8.76402 c 0.989339,-2.85296 0.249728,-7.25 -1.219491,-7.25 -1.568328,0 -2.591871,4.51522 -1.605958,7.08447 0.671859,1.75084 2.243769,1.84293 2.825449,0.16553 z m 85.351746,-1.17783 c 0.77338,-3.08137 -0.30573,-6.57217 -2.03164,-6.57217 -1.79274,0 -2.371,1.85346 -1.79392,5.75 0.56699,3.82845 2.94288,4.33907 3.82556,0.82217 z"
         id="path4562"
         inkscape:connector-curvature="0" />
      <path
         style="fill:#9aa3b6"
         d="m 57.747843,1026.9936 c -0.71606,-0.2832 -1.25,-2.2438 -1.25,-4.59 0,-6.493 -1.8228,-10.1154 -6.61601,-13.1478 -7.61658,-4.8186 -13.84378,-14.36952 -15.034888,-23.05957 -0.336018,-2.45153 -1.452028,-5.21849 -2.480022,-6.14881 -2.272956,-2.057 -2.476444,-7.6313 -0.355986,-9.75176 1.156516,-1.15652 1.57075,-4.41369 1.757753,-13.82143 0.227639,-11.45205 0.462443,-12.76912 3.375113,-18.93171 3.13185,-6.62633 9.58586,-14.84074 11.7204,-14.91726 0.6235,-0.0224 2.67713,-1.36024 4.56362,-2.97308 2.55993,-2.1886 3.75811,-2.66011 4.72359,-1.85883 0.97022,0.80521 2.3452,0.17349 5.50002,-2.52692 4.98187,-4.2643 5.84641,-4.42704 5.84641,-1.10053 0,3.06021 0.70356,3.12711 3.66161,0.34817 l 2.29051,-2.15182 0.91622,2.40182 0.91622,2.40183 0.71613,-2.75 c 0.88556,-3.40064 1.1648,-3.38385 5.49931,0.33061 2.72846,2.33815 3.57127,2.65985 3.82332,1.45935 0.45122,-2.14912 1.55713,-1.93215 5.02499,0.98585 1.81851,1.53018 3.25293,2.1194 3.63896,1.49478 0.85466,-1.38287 8.097637,3.67067 12.934757,9.02478 7.44136,8.2367 11.30451,20.8763 10.1725,33.2828 -0.56945,6.24102 -0.43262,6.98235 1.59122,8.62116 2.87528,2.32826 2.92423,7.58624 0.10772,11.57065 -1.15859,1.63901 -2.41116,4.75909 -2.78349,6.93351 -1.39917,8.17128 -8.15691,17.49721 -16.01641,22.10311 -4.877787,2.8586 -6.493567,5.8422 -6.493567,11.9904 0,2.8343 -0.45438,4.4949 -1.25,4.5681 -2.72838,0.2514 -5.44638,-0.3731 -9.67765,-2.2235 -3.0163,-1.3191 -4.75353,-1.6104 -5.45,-0.914 -0.56229,0.5623 -1.96735,1.0224 -3.12235,1.0224 -1.155,0 -2.56006,-0.4601 -3.12235,-1.0224 -0.69647,-0.6964 -2.4337,-0.4118 -5.45,0.8931 -5.66519,2.4507 -8.11866,3.0736 -9.67765,2.457 z m 11.37212,-8.3277 c 0.20784,0 0.37788,-1.3011 0.37788,-2.8914 0,-2.4424 -0.62441,-3.1413 -4.02024,-4.5 -2.21113,-0.8847 -5.18861,-1.6086 -6.61663,-1.6086 -2.8003,0 -2.80517,0.1712 -0.19892,7 1.78566,4.6787 2.62871,5.1134 6.65524,3.431 1.88364,-0.7871 3.59484,-1.431 3.80267,-1.431 z m 9.3671,-0.487 c 1.99758,-2.407 0.42828,-6.513 -2.48922,-6.513 -2.60736,0 -4.29344,3.4899 -3.13923,6.4978 0.74029,1.9291 4.03263,1.938 5.62845,0.015 z m 11.82746,-1.1263 c 2.25379,-0.4508 3.34722,-1.4181 4.125,-3.6493 1.4483,-4.1546 1.51725,-4.0657 -2.69168,-3.4703 -6.60599,0.9345 -9.25,2.4232 -9.25,5.2081 0,2.7305 1.67431,3.1399 7.81668,1.9115 z m -12.29272,-8.5577 c 2.92368,1.3321 12.52653,-1.023 17.56975,-4.309 3.51249,-2.2886 6.906287,-7.67974 6.906287,-10.97079 0,-2.2916 -2.694077,-7.27445 -4.228957,-7.82169 -0.91156,-0.325 -0.67003,-1.12831 0.854,-2.84034 4.966547,-5.57922 5.693247,-11.01807 2.222487,-16.63388 -3.808177,-6.16177 -10.947367,-7.72709 -19.836797,-4.34938 -4.92645,1.87191 -5.09501,1.87191 -10.02146,0 -9.34806,-3.55198 -17.02503,-1.60303 -20.5521,5.21757 -2.35497,4.55402 -1.44722,11.2148 2.02187,14.83575 l 2.68758,2.80523 -2.57331,2.57331 c -4.84941,4.84941 -2.2659,13.60352 5.32262,18.03542 4.72602,2.7602 13.12072,4.5961 15.48056,3.3856 1.2231,-0.6274 2.66725,-0.6023 4.14747,0.072 z m -13.02396,-10.165 c -2.2,-0.72316 -5.125,-1.939 -6.5,-2.70187 -1.375,-0.76287 -2.8375,-1.29143 -3.25,-1.17458 -1.48466,0.42055 -0.7137,-3.58751 0.80194,-4.16911 0.85356,-0.32754 1.31418,-0.21083 1.02358,0.25937 -0.2906,0.47019 0.27087,1.57819 1.24771,2.46221 7.14527,6.46638 29.98682,6.1438 37.14448,-0.52457 1.83611,-1.71059 2.4039,-1.83843 3.1229,-0.70309 1.2432,1.96311 1.11503,3.00799 -0.34061,2.77669 -0.6875,-0.10925 -3.5,0.85589 -6.25,2.14474 -6.09447,2.85631 -20.60469,3.73241 -27,1.63021 z m 5.41768,-13.71488 c -1.07269,-0.66296 -1.12577,-1.14103 -0.22654,-2.04026 1.25662,-1.25662 4.30886,-0.58171 4.30886,0.95276 0,1.39976 -2.49965,2.06564 -4.08232,1.0875 z m 9,0 c -1.07269,-0.66296 -1.12577,-1.14103 -0.22654,-2.04026 1.25662,-1.25662 4.30886,-0.58171 4.30886,0.95276 0,1.39976 -2.49965,2.06564 -4.08232,1.0875 z m -14.1592,-0.74833 c -1.45123,-0.28681 -1.26048,-0.74895 1.14435,-2.77248 1.58724,-1.33557 3.94592,-2.38346 5.24153,-2.32863 l 2.35564,0.0997 -2.492,0.69352 c -1.3706,0.38143 -2.9456,1.58419 -3.5,2.6728 -0.56737,1.11406 -1.76929,1.82883 -2.74952,1.63511 z m 20.24152,-0.84269 c 0,-0.80005 -1.4625,-2.09031 -3.25,-2.86723 -2.67313,-1.16186 -2.85755,-1.41954 -1.03896,-1.45173 1.21608,-0.0215 3.01608,0.79917 4,1.82377 0.98393,1.02461 2.45235,2.07074 3.26317,2.32474 1.03036,0.32278 0.80455,0.63694 -0.75,1.04346 -1.54616,0.40434 -2.22421,0.1382 -2.22421,-0.87301 z m -25.20127,-5.90049 c -0.99552,-2.18493 -0.84995,-2.85083 1.03534,-4.73612 1.73642,-1.73642 2.55563,-1.96687 3.92983,-1.10548 2.15789,1.35264 2.78637,5.01603 1.19042,6.93903 -1.86832,2.25119 -4.87401,1.71533 -6.15559,-1.09743 z m 26.24695,1.09743 c -1.58283,-1.90719 -0.97345,-5.58269 1.14578,-6.91088 1.99319,-1.24918 5.80854,1.58239 5.80854,4.31083 0,3.64945 -4.64278,5.38528 -6.95432,2.60005 z m 14.177637,-8.56906 c -2.392437,-3.8309 -6.942857,-5.24735 -14.625277,-4.55256 -9.7105,0.87821 -11.19388,0.8814 -18.25883,0.0393 -7.44429,-0.88731 -10.22717,-0.27933 -14.26214,3.11587 -3.46067,2.91197 -3.7493,2.61202 -1.56014,-1.62133 3.06162,-5.92054 10.49974,-7.47267 19.47234,-4.06334 4.92645,1.8719 5.09501,1.8719 10.02146,0 8.95614,-3.40307 16.16606,-1.70462 19.566307,4.60927 1.95775,3.63532 1.66227,5.7009 -0.35372,2.47278 z m -65.003826,8.76402 c 0.989339,-2.85296 0.249728,-7.25 -1.219491,-7.25 -1.568328,0 -2.591871,4.51522 -1.605958,7.08447 0.671859,1.75084 2.243769,1.84293 2.825449,0.16553 z m 85.351746,-1.17783 c 0.77338,-3.08137 -0.30573,-6.57217 -2.03164,-6.57217 -1.79274,0 -2.371,1.85346 -1.79392,5.75 0.56699,3.82845 2.94288,4.33907 3.82556,0.82217 z"
         id="path4560"
         inkscape:connector-curvature="0" />
      <path
         style="fill:#939bb1"
         d="m 56.497843,1022.3151 c 0,-6.9056 -1.66062,-10.2603 -6.47591,-13.0822 -7.50423,-4.3978 -13.70904,-13.94906 -15.10376,-23.24971 -0.346111,-2.30803 -1.482276,-4.96837 -2.524811,-5.91185 -2.35365,-2.13002 -2.498504,-7.6596 -0.25931,-9.89879 1.296843,-1.29685 1.597794,-3.43761 1.450994,-10.32143 -0.214458,-10.05655 1.213309,-17.81923 4.448327,-24.18522 2.64689,-5.20867 9.07945,-12.98125 10.79239,-13.04064 0.64464,-0.0224 2.71557,-1.36024 4.60206,-2.97308 2.54898,-2.17924 3.76038,-2.65822 4.71635,-1.86484 0.9596,0.7964 2.40071,0.15449 5.67302,-2.52692 2.41265,-1.97699 4.67779,-3.59452 5.03364,-3.59452 0.35586,0 0.64701,1.125 0.64701,2.5 0,3.06021 0.70356,3.12711 3.66161,0.34817 l 2.29051,-2.15182 0.91622,2.40182 0.91622,2.40183 0.71613,-2.75 c 0.88556,-3.40064 1.1648,-3.38385 5.49931,0.33061 2.72846,2.33815 3.57127,2.65985 3.82332,1.45935 0.43331,-2.06382 0.93364,-1.96272 4.7708,0.96403 1.95225,1.48906 3.53572,2.09493 3.90664,1.49478 0.83986,-1.35893 8.134637,3.74838 12.921267,9.0466 7.45132,8.24773 11.36872,21.36595 10.0719,33.72787 -0.59493,5.67107 -0.44864,6.44285 1.52399,8.04018 2.6636,2.15686 3.05854,8.92628 0.6246,10.70602 -0.85661,0.62637 -2.05209,3.34596 -2.65663,6.04353 -2.4222,10.80832 -8.19,19.12813 -16.73058,24.13333 -4.939737,2.8948 -6.255307,5.391 -6.255307,11.8688 0,4.233 -0.13281,4.4349 -2.91709,4.4349 -1.60441,0 -5.0536,-0.9158 -7.66487,-2.0351 -3.27261,-1.4028 -5.0694,-1.7135 -5.78291,-1 -1.33028,1.3302 -4.93592,1.3343 -6.26321,0.01 -0.7041,-0.7041 -2.42154,-0.3959 -5.45,0.978 -2.43206,1.1034 -5.88442,2.016 -7.67192,2.0281 -3.17204,0.021 -3.25,-0.082 -3.25,-4.3288 z m 12.62212,-3.6492 c 0.20784,0 0.37788,-1.3011 0.37788,-2.8914 0,-2.4424 -0.62441,-3.1413 -4.02024,-4.5 -2.21113,-0.8847 -5.18861,-1.6086 -6.61663,-1.6086 -2.8003,0 -2.80517,0.1712 -0.19892,7 1.78566,4.6787 2.62871,5.1134 6.65524,3.431 1.88364,-0.7871 3.59484,-1.431 3.80267,-1.431 z m 9.3671,-0.487 c 1.99758,-2.407 0.42828,-6.513 -2.48922,-6.513 -2.60736,0 -4.29344,3.4899 -3.13923,6.4978 0.74029,1.9291 4.03263,1.938 5.62845,0.015 z m 11.82746,-1.1263 c 2.25379,-0.4508 3.34722,-1.4181 4.125,-3.6493 1.4483,-4.1546 1.51725,-4.0657 -2.69168,-3.4703 -6.60599,0.9345 -9.25,2.4232 -9.25,5.2081 0,2.7305 1.67431,3.1399 7.81668,1.9115 z m 0.26861,-10.3084 c 6.04827,-2.2727 9.17644,-4.9814 10.848097,-9.3934 1.70313,-4.49506 1.25419,-7.58823 -1.501247,-10.34367 -2.55289,-2.55289 -2.55653,-2.58032 -0.62496,-4.70455 6.485067,-7.1319 5.107777,-17.0437 -2.94709,-21.20903 -3.83238,-1.9818 -11.89858,-1.49335 -16.74757,1.01416 -2.88333,1.49103 -3.35183,1.48195 -6.36252,-0.12335 -2.11596,-1.12823 -5.58147,-1.74783 -9.93168,-1.77568 -6.06102,-0.0388 -6.96727,0.2306 -9.75633,2.90037 -5.45897,5.22551 -5.83832,11.84911 -1.06272,18.55582 l 2.14118,3.00701 -2.07022,2.63187 c -5.5389,7.04157 0.51008,17.18165 12.27824,20.58225 6.82478,1.9722 18.87214,1.4377 25.73682,-1.1418 z m -24.496,-8.13324 c -2.15089,-0.53932 -5.34435,-1.86663 -7.09659,-2.94957 -1.75223,-1.08294 -3.47991,-1.67495 -3.83929,-1.31557 -0.35937,0.35938 -0.65341,-0.07 -0.65341,-0.95424 0,-0.88421 0.45,-1.88576 1,-2.22568 0.55,-0.33992 1,-0.22434 1,0.25684 0,1.76878 7.77023,5.16807 14.13904,6.18549 4.63081,0.73978 8.27483,0.7284 12.42503,-0.0388 6.28273,-1.16142 13.43593,-4.31524 13.43593,-5.92385 0,-0.53882 0.45,-0.97967 1,-0.97967 0.55,0 1,0.9 1,2 0,1.1 -0.3375,1.9299 -0.75,1.84423 -0.4125,-0.0857 -2.97947,0.87608 -5.70438,2.13721 -5.63713,2.60895 -19.26964,3.64025 -25.95633,1.96362 z m 3.66071,-15.19506 c 0.22917,-0.6875 1.24167,-1.25 2.25,-1.25 1.00833,0 2.02083,0.5625 2.25,1.25 0.26389,0.79167 -0.56111,1.25 -2.25,1.25 -1.68889,0 -2.51389,-0.45833 -2.25,-1.25 z m 8.75,0.30901 c 0,-0.51754 0.40939,-1.194 0.90976,-1.50324 1.29223,-0.79864 4.18962,0.4744 3.52548,1.54901 -0.73594,1.19077 -4.43524,1.1526 -4.43524,-0.0458 z m -12.12447,-1.74129 c 1.13141,-2.1999 4.7709,-4.00462 5.8665,-2.90903 0.32522,0.32522 -0.14117,0.59131 -1.03641,0.59131 -0.89524,0 -2.60077,1.0125 -3.79007,2.25 -2.15518,2.24251 -2.15864,2.24274 -1.04002,0.0677 z m 18.75362,0.15825 c -0.32165,-0.83821 -1.60729,-1.93469 -2.85698,-2.43661 -1.61086,-0.64698 -1.78363,-0.93104 -0.5936,-0.97598 1.7849,-0.0674 4.82143,2.45686 4.82143,4.00805 0,1.41863 -0.71758,1.10694 -1.37085,-0.59546 z m -24.66504,-4.54303 c -0.86054,-1.60793 -0.75218,-2.60745 0.48787,-4.5 2.49544,-3.80852 6.54802,-2.52921 6.54802,2.06706 0,4.40865 -5.0449,6.15313 -7.03589,2.43294 z m 26.60732,0.49563 c -2.20463,-2.20463 -1.95473,-5.15307 0.5504,-6.49378 1.75249,-0.9379 2.48008,-0.77733 4.17983,0.92243 1.75322,1.75321 1.88645,2.43451 0.89961,4.60039 -1.32242,2.90239 -3.34891,3.25189 -5.62984,0.97096 z m -35.57143,-10.36956 c 0,-0.51754 0.44485,-1.21591 0.98855,-1.55193 0.56686,-0.35034 0.7345,0.0511 0.39301,0.94098 -0.66479,1.73242 -1.38156,2.04939 -1.38156,0.61095 z m 46.40499,-3.30901 -1.90499,-2.25 2.25,1.90499 c 2.114437,1.79021 2.705237,2.59501 1.904987,2.59501 -0.189757,0 -1.202257,-1.0125 -2.249997,-2.25 z m -23.75048,0.5 c -0.25494,-0.4125 0.80053,-0.75 2.34549,-0.75 1.54496,0 2.60043,0.3375 2.34549,0.75 -0.25494,0.4125 -1.31041,0.75 -2.34549,0.75 -1.03508,0 -2.09055,-0.3375 -2.34549,-0.75 z m -38.02867,9.76369 c -0.0889,-2.46209 -0.639956,-3.58531 -1.87584,-3.82332 -1.423468,-0.27414 -1.75,0.3857 -1.75,3.5363 0,4.19148 1.888029,7.27237 3.082415,5.0299 0.368101,-0.69112 0.612645,-2.82541 0.543425,-4.74288 z m 84.943657,2.5654 c 0.93407,-3.72159 0.12619,-6.07909 -2.0832,-6.07909 -1.86633,0 -2.31918,2.21332 -1.58566,7.75 0.24192,1.82607 3.12018,0.51523 3.66886,-1.67091 z"
         id="path4558"
         inkscape:connector-curvature="0" />
      <path
         style="fill:#4aaad5"
         d="m 56.497843,1022.3151 c 0,-6.9257 -1.60541,-10.0567 -6.92365,-13.5028 -7.5416,-4.8868 -12.93887,-13.23448 -14.642207,-22.6464 -0.398149,-2.2 -1.55871,-5.07319 -2.579025,-6.38486 -2.266342,-2.91351 -2.39076,-6.86578 -0.289235,-9.18794 1.201142,-1.32725 1.623833,-4.49013 1.814672,-13.57874 0.200018,-9.52572 0.691435,-12.97609 2.506745,-17.60055 2.41229,-6.14523 9.15808,-15.46273 11.93169,-16.48042 0.92455,-0.33924 3.24062,-1.88374 5.14681,-3.43222 2.90634,-2.36095 3.6015,-2.57295 4.30639,-1.31337 0.68882,1.23085 1.69967,0.77767 5.59856,-2.50993 2.61688,-2.20658 5.0665,-4.01197 5.44361,-4.01197 0.3771,0 0.68564,1.125 0.68564,2.5 0,3.06021 0.70356,3.12711 3.66161,0.34817 l 2.29051,-2.15182 0.88242,2.3854 0.88242,2.3854 0.70891,-2.23357 c 0.91086,-2.8699 2.09429,-2.81512 5.7565,0.26642 3.44755,2.90092 4.81763,3.15156 4.81763,0.88131 0,-1.27587 0.7806,-1.0233 3.6858,1.19261 2.35461,1.79595 3.82846,2.38329 4.08081,1.62625 0.55034,-1.65102 8.133347,3.71549 12.768477,9.03627 7.36789,8.45779 11.24112,21.78055 9.86592,33.93578 -0.60594,5.35579 -0.46008,6.0981 1.46297,7.44506 2.84354,1.99169 2.91744,8.17572 0.13602,11.38272 -1.1,1.26831 -2,3.34528 -2,4.61549 0,4.04064 -3.89483,12.90165 -7.5456,17.16671 -1.94127,2.268 -5.81569,5.6049 -8.6098,7.4154 -5.637177,3.6528 -6.844597,5.8345 -6.844597,12.3675 0,4.1767 -0.16009,4.4336 -2.75,4.4129 -1.5125,-0.012 -4.75137,-0.9298 -7.19748,-2.0395 -3.64861,-1.6552 -4.93458,-1.8158 -7.15927,-0.8943 -1.95443,0.8096 -3.27521,0.8217 -4.72915,0.044 -1.56234,-0.8361 -3.06758,-0.6295 -6.67363,0.9163 -2.56095,1.0977 -5.96897,1.9959 -7.57338,1.9959 -2.7758,0 -2.91709,-0.2107 -2.91709,-4.3508 z m 12.62212,-3.6492 c 0.20784,0 0.37788,-1.3011 0.37788,-2.8914 0,-2.4424 -0.62441,-3.1413 -4.02024,-4.5 -2.21113,-0.8847 -5.18861,-1.6086 -6.61663,-1.6086 -2.8003,0 -2.80517,0.1712 -0.19892,7 1.78566,4.6787 2.62871,5.1134 6.65524,3.431 1.88364,-0.7871 3.59484,-1.431 3.80267,-1.431 z m 9.3671,-0.487 c 1.99758,-2.407 0.42828,-6.513 -2.48922,-6.513 -2.60736,0 -4.29344,3.4899 -3.13923,6.4978 0.74029,1.9291 4.03263,1.938 5.62845,0.015 z m 11.82746,-1.1263 c 2.25379,-0.4508 3.34722,-1.4181 4.125,-3.6493 1.4483,-4.1546 1.51725,-4.0657 -2.69168,-3.4703 -6.60599,0.9345 -9.25,2.4232 -9.25,5.2081 0,2.7305 1.67431,3.1399 7.81668,1.9115 z m -1.81668,-9.3053 c 11.864827,-3.3373 17.519267,-13.74554 11.41111,-21.00468 -1.4239,-1.6922 -2.2114,-3.0798 -1.75,-3.08355 1.952477,-0.0159 5.338887,-6.77565 5.338887,-10.65717 0,-4.62496 -3.20465,-10.12104 -7.030017,-12.05669 -3.54261,-1.79259 -10.19417,-1.56594 -15.72559,0.53583 -4.59567,1.74622 -4.92833,1.74721 -8.76073,0.0262 -2.19101,-0.9839 -6.3305,-1.80072 -9.19886,-1.81514 -4.40802,-0.0222 -5.75286,0.44584 -8.68895,3.02376 -6.30546,5.53627 -6.79273,11.65167 -1.51856,19.05856 l 2.15049,3.02009 -2.11389,2.25013 c -3.51807,3.74482 -2.90179,9.74336 1.50179,14.61766 6.26832,6.9382 21.66411,9.6628 34.38432,6.085 z m -21.3865,-9.19459 c -3.07389,-0.72153 -9.48763,-3.60071 -12.54683,-5.63236 -0.23834,-0.15828 0.0992,-0.82028 0.75,-1.47112 0.91111,-0.91111 1.18333,-0.89455 1.18333,0.072 0,0.69043 2.54621,2.42102 5.65824,3.84575 9.84411,4.50679 26.76911,3.33929 32.8147,-2.26357 1.45088,-1.34463 2.74775,-1.88944 3.10843,-1.30584 0.3404,0.55077 0.46134,1.10766 0.26877,1.23753 -8.79407,5.93065 -20.59594,8.0153 -31.23664,5.51762 z m 2.95126,-14.78203 c -0.3043,-0.49237 0.007,-1.10108 0.69098,-1.35269 1.75293,-0.6445 3.86778,0.23904 3.19147,1.33332 -0.72427,1.17191 -3.16262,1.18407 -3.88245,0.0194 z m 8.43524,0.002 c 0,-1.12404 2.60112,-2.17253 3.40223,-1.37142 1.20377,1.20377 0.54696,2.26443 -1.40223,2.26443 -1.1,0 -2,-0.40185 -2,-0.89301 z m -12,-2.04797 c 0,-0.51754 0.44485,-1.21591 0.98855,-1.55194 0.56686,-0.35034 0.7345,0.0511 0.39301,0.94099 -0.66479,1.73241 -1.38156,2.04938 -1.38156,0.61095 z m 17.87244,-0.80902 c -1.24387,-1.58605 -1.2085,-1.62142 0.37756,-0.37755 0.9625,0.75484 1.75,1.54234 1.75,1.75 0,0.82303 -0.82119,0.2933 -2.12756,-1.37245 z m -22.52249,-2.01531 c -1.13957,-0.72799 -1.69693,-2.60665 -1.46843,-4.9495 0.0652,-0.66815 0.98723,-1.67976 2.04903,-2.24802 1.45727,-0.7799 2.31532,-0.64844 3.5,0.53625 1.99269,1.99268 1.99206,3.86112 -0.002,5.85516 -1.74979,1.74978 -2.4002,1.87833 -4.07862,0.80611 z m 25.22148,-0.80611 c -0.86429,-0.86429 -1.57143,-2.18215 -1.57143,-2.92858 0,-1.53186 2.67025,-4.5 4.04838,-4.5 0.49803,0 1.62287,1.09483 2.49964,2.43295 2.90973,4.44081 -1.30278,8.66944 -4.97659,4.99563 z m 3.42857,-4.42858 c 0,-0.55 -0.47656,-1 -1.05902,-1 -0.58246,0 -0.7809,0.45 -0.44098,1 0.33992,0.55 0.81648,1 1.05902,1 0.24254,0 0.44098,-0.45 0.44098,-1 z m -54.01531,0.75 c 0.0123,-3.01709 -0.35439,-3.75 -1.876282,-3.75 -2.728919,0 -3.636254,4.54546 -1.544566,7.73778 2.057307,3.13985 3.398118,1.57682 3.420848,-3.98778 z m 84.815867,0.33559 c -0.23628,-2.81873 -0.7283,-3.58559 -2.30056,-3.58559 -1.54896,0 -2.00669,0.67656 -2.02967,3 -0.0163,1.65 0.35256,3.81656 0.81974,4.81457 1.41545,3.02378 3.87054,0.0662 3.51049,-4.22898 z"
         id="path4556"
         inkscape:connector-curvature="0" />
      <path
         style="fill:#6a899c"
         d="m 56.497843,1022.3151 c 0,-6.9257 -1.60541,-10.0567 -6.92365,-13.5028 -7.5416,-4.8868 -12.93887,-13.23448 -14.642207,-22.6464 -0.398149,-2.2 -1.55871,-5.07319 -2.579025,-6.38486 -2.266342,-2.91351 -2.39076,-6.86578 -0.289235,-9.18794 1.201142,-1.32725 1.623833,-4.49013 1.814672,-13.57874 0.200018,-9.52572 0.691435,-12.97609 2.506745,-17.60055 2.41229,-6.14523 9.15808,-15.46273 11.93169,-16.48042 0.92455,-0.33924 3.24062,-1.88374 5.14681,-3.43222 2.90634,-2.36095 3.6015,-2.57295 4.30639,-1.31337 0.68882,1.23085 1.69967,0.77767 5.59856,-2.50993 2.61688,-2.20658 5.0665,-4.01197 5.44361,-4.01197 0.3771,0 0.68564,1.125 0.68564,2.5 0,3.06021 0.70356,3.12711 3.66161,0.34817 l 2.29051,-2.15182 0.88242,2.3854 0.88242,2.3854 0.70891,-2.23357 c 0.91086,-2.8699 2.09429,-2.81512 5.7565,0.26642 3.44755,2.90092 4.81763,3.15156 4.81763,0.88131 0,-1.27587 0.7806,-1.0233 3.6858,1.19261 2.35461,1.79595 3.82846,2.38329 4.08081,1.62625 0.55034,-1.65102 8.133347,3.71549 12.768477,9.03627 7.36789,8.45779 11.24112,21.78055 9.86592,33.93578 -0.60594,5.35579 -0.46008,6.0981 1.46297,7.44506 2.84354,1.99169 2.91744,8.17572 0.13602,11.38272 -1.1,1.26831 -2,3.34528 -2,4.61549 0,4.04064 -3.89483,12.90165 -7.5456,17.16671 -1.94127,2.268 -5.81569,5.6049 -8.6098,7.4154 -5.637177,3.6528 -6.844597,5.8345 -6.844597,12.3675 0,4.1767 -0.16009,4.4336 -2.75,4.4129 -1.5125,-0.012 -4.75137,-0.9298 -7.19748,-2.0395 -3.64861,-1.6552 -4.93458,-1.8158 -7.15927,-0.8943 -1.95443,0.8096 -3.27521,0.8217 -4.72915,0.044 -1.56234,-0.8361 -3.06758,-0.6295 -6.67363,0.9163 -2.56095,1.0977 -5.96897,1.9959 -7.57338,1.9959 -2.7758,0 -2.91709,-0.2107 -2.91709,-4.3508 z m 9.40764,0.543 c 3.4841,-1.5651 3.94888,-2.1978 4.28803,-5.8367 0.3476,-3.7296 0.12587,-4.1868 -2.57279,-5.3046 -1.62425,-0.6728 -4.5961,-1.5938 -6.60411,-2.0467 -4.49173,-1.013 -5.5256,0.6606 -3.29664,5.3367 0.84164,1.7656 1.29525,4.5927 1.02837,6.4091 -0.56981,3.8783 1.02067,4.1988 7.15714,1.4422 z m 27.28247,-1.7144 c -0.37648,-2.32 -0.0212,-4.4812 1.04077,-6.3316 2.44056,-4.2524 1.23865,-6.1542 -3.24965,-5.142 -2.00801,0.4529 -4.97986,1.3739 -6.60411,2.0467 -2.67786,1.1092 -2.9188,1.592 -2.58446,5.1793 0.32472,3.4842 0.83626,4.1739 4.28802,5.782 2.15563,1.0042 4.7657,1.8623 5.80016,1.9068 1.60231,0.069 1.7962,-0.4406 1.30927,-3.4412 z m -14.74803,0.092 c 0.65283,-0.7866 1.04543,-3.1036 0.87245,-5.1488 -0.61916,-7.32 -6.81453,-6.8642 -6.81453,0.5014 0,5.3668 3.2412,7.9017 5.94208,4.6474 z m 10.05792,-13.4884 c 11.864827,-3.3373 17.519267,-13.74554 11.41111,-21.00468 -1.4239,-1.6922 -2.2114,-3.0798 -1.75,-3.08355 1.952477,-0.0159 5.338887,-6.77565 5.338887,-10.65717 0,-4.62496 -3.20465,-10.12104 -7.030017,-12.05669 -3.54261,-1.79259 -10.19417,-1.56594 -15.72559,0.53583 -4.59567,1.74622 -4.92833,1.74721 -8.76073,0.0262 -2.19101,-0.9839 -6.3305,-1.80072 -9.19886,-1.81514 -4.40802,-0.0222 -5.75286,0.44584 -8.68895,3.02376 -6.30546,5.53627 -6.79273,11.65167 -1.51856,19.05856 l 2.15049,3.02009 -2.11389,2.25013 c -3.51807,3.74482 -2.90179,9.74336 1.50179,14.61766 6.26832,6.9382 21.66411,9.6628 34.38432,6.085 z m -21.3865,-9.19459 c -3.07389,-0.72153 -9.48763,-3.60071 -12.54683,-5.63236 -0.23834,-0.15828 0.0992,-0.82028 0.75,-1.47112 0.91111,-0.91111 1.18333,-0.89455 1.18333,0.072 0,0.69043 2.54621,2.42102 5.65824,3.84575 9.84411,4.50679 26.76911,3.33929 32.8147,-2.26357 1.45088,-1.34463 2.74775,-1.88944 3.10843,-1.30584 0.3404,0.55077 0.46134,1.10766 0.26877,1.23753 -8.79407,5.93065 -20.59594,8.0153 -31.23664,5.51762 z m 2.95126,-14.78203 c -0.3043,-0.49237 0.007,-1.10108 0.69098,-1.35269 1.75293,-0.6445 3.86778,0.23903 3.19147,1.33332 -0.72427,1.17191 -3.16262,1.18407 -3.88245,0.0194 z m 8.43524,0.002 c 0,-1.12404 2.60112,-2.17253 3.40223,-1.37142 1.20377,1.20377 0.54696,2.26443 -1.40223,2.26443 -1.1,0 -2,-0.40185 -2,-0.89301 z m -12,-2.04797 c 0,-0.51754 0.44485,-1.21591 0.98855,-1.55194 0.56686,-0.35034 0.7345,0.0511 0.39301,0.94099 -0.66479,1.73241 -1.38156,2.04938 -1.38156,0.61095 z m 17.87244,-0.80902 c -1.24387,-1.58605 -1.2085,-1.62142 0.37756,-0.37755 0.9625,0.75484 1.75,1.54234 1.75,1.75 0,0.82303 -0.82119,0.2933 -2.12756,-1.37245 z m -22.52249,-2.01531 c -1.13957,-0.72799 -1.69693,-2.60665 -1.46843,-4.9495 0.0652,-0.66815 0.98723,-1.67976 2.04903,-2.24802 1.45727,-0.7799 2.31532,-0.64844 3.5,0.53625 1.99269,1.99268 1.99206,3.86112 -0.002,5.85516 -1.74979,1.74978 -2.4002,1.87833 -4.07862,0.80611 z m 25.22148,-0.80611 c -0.86429,-0.86429 -1.57143,-2.18215 -1.57143,-2.92858 0,-1.53186 2.67025,-4.5 4.04838,-4.5 0.49803,0 1.62287,1.09483 2.49964,2.43295 2.90973,4.44081 -1.30278,8.66944 -4.97659,4.99563 z m 3.42857,-4.42858 c 0,-0.55 -0.47656,-1 -1.05902,-1 -0.58246,0 -0.7809,0.45 -0.44098,1 0.33992,0.55 0.81648,1 1.05902,1 0.24254,0 0.44098,-0.45 0.44098,-1 z m -54.01531,0.75 c 0.0123,-3.01709 -0.35439,-3.75 -1.876282,-3.75 -2.728919,0 -3.636254,4.54546 -1.544566,7.73778 2.057307,3.13985 3.398118,1.57682 3.420848,-3.98778 z m 84.815867,0.33559 c -0.23628,-2.81873 -0.7283,-3.58559 -2.30056,-3.58559 -1.54896,0 -2.00669,0.67656 -2.02967,3 -0.0163,1.65 0.35256,3.81656 0.81974,4.81457 1.41545,3.02378 3.87054,0.0662 3.51049,-4.22898 z"
         id="path4554"
         inkscape:connector-curvature="0" />
      <path
         style="fill:#627788"
         d="m 56.847633,1025.135 c -0.3231,-0.8419 -0.34679,-2.7544 -0.0526,-4.25 0.78059,-3.9688 -2.09212,-8.6492 -7.51161,-12.2383 -6.16614,-4.0836 -12.28519,-13.25371 -13.839318,-20.7399 -0.654992,-3.15508 -2.035841,-6.81068 -3.068553,-8.12356 -2.392149,-3.04113 -2.387793,-6.26578 0.01247,-9.22998 1.599543,-1.97535 1.813001,-3.49132 1.388464,-9.86078 -0.604868,-9.07503 0.880837,-17.76911 4.196467,-24.557 2.57006,-5.26152 9.3937,-13.93416 10.2722,-13.05566 0.28025,0.28025 2.42431,-1.05946 4.76458,-2.97714 3.55515,-2.91317 4.35699,-3.22098 4.87489,-1.87137 0.5102,1.32956 1.48412,0.89171 5.50534,-2.47505 2.68697,-2.2497 5.16049,-4.09036 5.49666,-4.09036 0.33617,0 0.61122,1.125 0.61122,2.5 0,3.03339 1.08058,3.17343 3.5376,0.45846 l 1.84757,-2.04155 1.28608,2.29155 1.28609,2.29154 0.63796,-2.25 c 0.80376,-2.83475 1.25164,-2.81403 5.4047,0.25 3.95639,2.91893 5,3.10288 5,0.88131 0,-1.29787 0.67947,-1.10044 3.42824,0.99615 1.88553,1.43817 4.06732,2.3696 4.84843,2.06987 1.99519,-0.76563 10.965427,6.59074 14.757637,12.10254 5.29935,7.70233 6.96569,13.97064 6.96569,26.2029 0,9.56526 0.22911,10.99891 2,12.5152 2.60606,2.23138 2.6769,8.00722 0.12808,10.44307 -1.02955,0.98393 -2.17895,3.90534 -2.55423,6.49202 -1.33514,9.2028 -7.9554,18.59944 -16.17672,22.96084 -4.882027,2.5899 -6.859547,6.1344 -6.882397,12.3361 -0.0124,3.3599 -0.36843,4.0503 -2.22504,4.3143 -1.21567,0.1729 -4.34645,-0.6305 -6.95729,-1.7854 -3.90116,-1.7257 -5.2284,-1.9004 -7.44896,-0.9806 -1.94617,0.8061 -3.26629,0.8172 -4.71934,0.039 -1.56234,-0.8362 -3.06758,-0.6295 -6.67363,0.9162 -5.56465,2.3853 -9.33743,2.5584 -10.14068,0.4651 z m 9.40021,-2.4422 c 3.95454,-1.795 4.25,-2.203 4.25,-5.8694 0,-3.6223 -0.30267,-4.0603 -3.75,-5.427 -2.0625,-0.8177 -5.2125,-1.8023 -7,-2.188 -2.94285,-0.6351 -3.24665,-0.4813 -3.21456,1.628 0.0195,1.2812 0.65028,3.44 1.40177,4.7974 0.78763,1.4225 1.14075,3.858 0.83372,5.75 -0.64521,3.976 0.97782,4.26 7.47907,1.309 z m 26.97907,-1.309 c -0.30703,-1.892 0.0461,-4.3275 0.83372,-5.75 0.75149,-1.3574 1.38229,-3.5162 1.40177,-4.7974 0.032,-2.1065 -0.27213,-2.2619 -3.17873,-1.6235 -1.76779,0.3883 -4.80529,1.2543 -6.75,1.9244 -3.2001,1.1028 -3.5651,1.6145 -3.84412,5.3898 -0.29939,4.0508 -0.1839,4.2265 4,6.0844 6.67303,2.9632 8.17768,2.7181 7.53736,-1.2277 z m -14.78699,-0.1481 c 0.65283,-0.7866 1.04543,-3.1036 0.87245,-5.1487 -0.61916,-7.3201 -6.81453,-6.8643 -6.81453,0.5013 0,5.3668 3.2412,7.9017 5.94208,4.6474 z m 12.02945,-14.009 c 10.206597,-3.717 15.063117,-13.43315 9.958237,-19.92295 l -2.070217,-2.63187 2.141177,-3.00701 c 4.92494,-6.91644 4.36433,-13.71524 -1.559817,-18.91671 -3.00203,-2.63582 -4.29917,-3.08226 -8.95547,-3.08226 -2.99473,0 -7.24522,0.72032 -9.44553,1.60071 -3.66791,1.4676 -4.39118,1.4676 -8.69837,0 -2.5838,-0.88039 -6.9206,-1.60071 -9.63733,-1.60071 -4.39006,0 -5.36414,0.42463 -8.757,3.81749 -5.9899,5.98991 -6.34223,10.37415 -1.41695,17.63197 l 2.58096,3.80325 -2.05561,2.18809 c -2.57307,2.73892 -2.71459,8.63096 -0.30561,12.72398 2.05054,3.48402 6.71923,6.58382 12.57418,8.34882 5.49397,1.6562 19.95889,1.1188 25.64735,-0.9528 z m -23.35803,-8.61017 c -3.08258,-0.77419 -7.87954,-2.9345 -12.46364,-5.61299 -0.19257,-0.11252 -0.0716,-0.65521 0.26877,-1.20597 0.36068,-0.58361 1.65755,-0.0388 3.10843,1.30583 5.73353,5.31366 23.72268,6.85491 32.73475,2.80461 2.619,-1.17705 5.02865,-2.83547 5.35479,-3.68536 0.5791,-1.50911 2.3834,-1.23226 2.3834,0.3657 0,0.44243 -2.74555,2.03655 -6.10121,3.54248 -6.81948,3.0604 -18.44613,4.20337 -25.28529,2.4857 z m 2.8865,-14.95063 c -0.33992,-0.55 0.30852,-1 1.44098,-1 1.13246,0 2.05902,0.45 2.05902,1 0,0.55 -0.64844,1 -1.44098,1 -0.79254,0 -1.7191,-0.45 -2.05902,-1 z m 8.5,0 c 0,-0.55 0.9,-1 2,-1 1.1,0 2,0.45 2,1 0,0.55 -0.9,1 -2,1 -1.1,0 -2,-0.45 -2,-1 z m -16.8,-5.2 c -1.83586,-1.83586 -1.42844,-5.60738 0.73055,-6.76284 1.45727,-0.7799 2.31532,-0.64843 3.5,0.53625 1.99269,1.99269 1.99206,3.86112 -0.002,5.85516 -1.88601,1.88603 -2.64709,1.95289 -4.22855,0.37143 z m 3.8,-4.8 c 0,-0.55 -0.47656,-1 -1.05902,-1 -0.58246,0 -0.7809,0.45 -0.44098,1 0.33992,0.55 0.81648,1 1.05902,1 0.24254,0 0.44098,-0.45 0.44098,-1 z m 21.56485,4.07166 c -3.50547,-3.8735 0.77979,-8.72703 4.45783,-5.04898 2.38832,2.38832 2.46062,3.35116 0.40589,5.40589 -2.03316,2.03316 -2.74822,1.98069 -4.86372,-0.35691 z m 3.43515,-4.07166 c 0,-0.55 -0.47656,-1 -1.05902,-1 -0.58246,0 -0.7809,0.45 -0.44098,1 0.33992,0.55 0.81648,1 1.05902,1 0.24254,0 0.44098,-0.45 0.44098,-1 z m -53.63405,1.82233 c 0.43675,-1.83925 0.1088,-3.20473 -1.047377,-4.3609 -1.577633,-1.57763 -1.765885,-1.57018 -3.000899,0.1188 -1.803658,2.46665 -1.653625,5.94096 0.342763,7.93735 1.856574,1.85657 2.5518,1.16327 3.705513,-3.69525 z m 83.434047,3.97767 c 1.62889,-1.62889 1.51989,-7.28962 -0.16732,-8.68989 -1.97331,-1.6377 -3.84547,0.97322 -3.26138,4.54834 0.25533,1.56285 0.50124,3.40405 0.54647,4.09155 0.10393,1.57984 1.3311,1.60113 2.88223,0.05 z"
         id="path4552"
         inkscape:connector-curvature="0" />
      <path
         style="fill:#515e6c"
         d="m 56.847633,1025.135 c -0.3231,-0.8419 -0.34679,-2.7544 -0.0526,-4.25 0.76808,-3.9052 -2.03829,-8.5759 -7.47466,-12.4402 -5.72715,-4.071 -8.17239,-7.0994 -11.28511,-13.97642 -3.115447,-6.88305 -4.115982,-12.40037 -2.583578,-14.2468 1.884528,-2.27072 2.245308,-8.14555 0.584868,-9.5236 -1.941303,-1.61114 -3.314583,-0.59894 -4.432637,3.26715 -0.65695,2.27165 -0.951826,2.58678 -1.015835,1.08563 -0.0496,-1.16333 0.798143,-3.24448 1.883881,-4.62477 1.678747,-2.13418 1.883706,-3.4773 1.370038,-8.97805 -0.761387,-8.15351 1.053485,-18.79222 4.312783,-25.28133 3.10243,-6.17681 9.17465,-13.72286 10.42219,-12.95184 0.5093,0.31476 2.60478,-1.01154 4.65662,-2.94734 3.04913,-2.87667 3.88338,-3.24669 4.56679,-2.0255 0.68226,1.21914 1.73717,0.73975 5.73177,-2.60472 l 4.89563,-4.09885 0.64346,2.56377 c 0.77074,3.07088 1.40065,3.16829 4.11787,0.63682 2.04606,-1.9062 2.07981,-1.90351 3.13337,0.25 l 1.06498,2.17695 0.67182,-2.25 c 0.83136,-2.7843 0.75285,-2.78805 5.22375,0.25 4.27787,2.90689 5.21481,3.07741 5.21481,0.94911 0,-1.1918 0.80038,-0.94041 3.45678,1.08572 1.90123,1.45014 3.93494,2.34111 4.51935,1.97992 1.41135,-0.87226 10.087477,5.56879 13.463767,9.99534 1.47623,1.93544 3.88306,6.09994 5.34851,9.25444 2.31496,4.98315 2.71375,7.3095 3.04028,17.73547 0.319,10.18566 0.66275,12.27048 2.27357,13.78895 2.47976,2.33761 2.49286,7.8625 0.0239,10.09684 -1.03059,0.93267 -2.1087,3.44704 -2.39579,5.58749 -0.70407,5.2492 -4.74235,13.83178 -8.54705,18.16512 -1.71292,1.9509 -5.14427,4.6239 -7.6252,5.9401 -5.050927,2.6795 -7.020337,6.1526 -7.043427,12.4215 -0.0124,3.3599 -0.36843,4.0503 -2.22504,4.3143 -1.21567,0.1729 -4.34645,-0.6305 -6.95729,-1.7854 -3.90116,-1.7257 -5.2284,-1.9004 -7.44896,-0.9806 -1.95911,0.8115 -3.26207,0.8194 -4.73915,0.029 -1.58269,-0.8471 -3.17285,-0.6426 -7.12775,0.9162 -6.09382,2.402 -8.87505,2.5389 -9.66675,0.4757 z m 10.45029,-2.4951 c 3.148,-1.1491 3.28626,-1.4144 3,-5.7581 -0.2957,-4.4872 -0.37299,-4.5792 -5.30008,-6.3073 -6.80377,-2.3862 -8.5,-2.3549 -8.5,0.1571 0,1.1362 0.52729,3.0487 1.17176,4.25 0.64446,1.2014 1.07507,4.0709 0.95689,6.3769 -0.23862,4.6561 -0.47753,4.6208 8.67143,1.2814 z m 26.06483,-1.724 c -0.11885,-2.0625 0.31292,-4.7329 0.95949,-5.9343 0.64658,-1.2013 1.1756,-3.1138 1.1756,-4.25 0,-2.5119 -1.69586,-2.5433 -8.5,-0.1575 -4.82951,1.6934 -5.01052,1.8961 -5.3086,5.9451 -0.29963,4.07 -0.18321,4.2489 4,6.1474 6.62552,3.0069 7.93053,2.7091 7.67351,-1.7507 z m -14.92283,0.3198 c 0.65283,-0.7866 1.04543,-3.1036 0.87245,-5.1487 -0.61916,-7.3201 -6.81453,-6.8643 -6.81453,0.5013 0,5.3668 3.2412,7.9017 5.94208,4.6474 z m 11.55462,-13.5868 c 2.24184,-0.6805 5.86422,-3.0808 8.25,-5.4665 3.690777,-3.69082 4.253297,-4.82431 4.253297,-8.57047 0,-3.02161 -0.63587,-4.99398 -2.11894,-6.57264 l -2.118947,-2.25551 2.062017,-2.62142 c 5.37927,-6.83864 4.86136,-13.93139 -1.419977,-19.44648 -4.40715,-3.86953 -11.10891,-4.35228 -18.63201,-1.34214 -3.40526,1.36252 -4.1726,1.34909 -7.88948,-0.13812 -4.95579,-1.98291 -11.80472,-2.25886 -15.72821,-0.6337 -7.74155,3.20666 -10.12352,13.48254 -4.75639,20.51921 2.50367,3.28249 2.68399,3.91935 1.325,4.67987 -0.86518,0.48418 -2.07428,2.39907 -2.68689,4.25531 -0.89825,2.72173 -0.79398,4.17442 0.53873,7.50518 1.84606,4.61371 5.33744,7.50151 12.26097,10.14111 5.36107,2.0439 19.8471,2.0148 26.66083,-0.054 z m -15.7467,-8.68873 c 1.2375,-0.23836 3.2625,-0.23836 4.5,0 1.2375,0.23835 0.225,0.43336 -2.25,0.43336 -2.475,0 -3.4875,-0.19501 -2.25,-0.43336 z m -6.9375,-0.97739 c 0.72187,-0.28887 1.58437,-0.25334 1.91667,0.0789 0.33229,0.3323 -0.25834,0.56865 -1.3125,0.52522 -1.16495,-0.048 -1.4019,-0.28494 -0.60417,-0.60416 z m 17,0 c 0.72187,-0.28887 1.58437,-0.25334 1.91667,0.0789 0.33229,0.3323 -0.25834,0.56865 -1.3125,0.52522 -1.16495,-0.048 -1.4019,-0.28494 -0.60417,-0.60416 z m 6.15775,-1.90036 c 1.90863,-0.82785 4.27389,-2.23248 5.25613,-3.12139 0.98223,-0.88891 1.99262,-1.40946 2.24531,-1.15678 0.70145,0.70146 -7.65744,5.86707 -9.42186,5.82251 -0.85241,-0.0215 0.0118,-0.71648 1.92042,-1.54434 z m -30.46317,-0.40507 c -0.35034,-0.56686 0.0511,-0.7345 0.94098,-0.39301 1.73242,0.66479 2.04939,1.38156 0.61096,1.38156 -0.51754,0 -1.21592,-0.44485 -1.55194,-0.98855 z m -3.63464,-2.76145 c -1.24387,-1.58606 -1.2085,-1.62143 0.37756,-0.37756 0.9625,0.75485 1.75,1.54235 1.75,1.75 0,0.82304 -0.82119,0.29331 -2.12756,-1.37244 z m 14.12756,-9.25 c 0,-0.55 0.675,-1 1.5,-1 0.825,0 1.5,0.45 1.5,1 0,0.55 -0.675,1 -1.5,1 -0.825,0 -1.5,-0.45 -1.5,-1 z m 9,0 c 0,-0.55 0.675,-1 1.5,-1 0.825,0 1.5,0.45 1.5,1 0,0.55 -0.675,1 -1.5,1 -0.825,0 -1.5,-0.45 -1.5,-1 z m -17.95432,-5.44496 c -2.0115,-2.42371 -0.89084,-6.02415 1.95432,-6.2788 1.375,-0.12307 1.9375,0.0269 1.25,0.33333 -2.06429,0.92 -1.4076,2.57523 0.75,1.89043 2.58181,-0.81944 2.68811,1.56729 0.17126,3.84501 -2.2337,2.02147 -2.60646,2.04045 -4.12558,0.21003 z m 25.35908,-1.06005 c -1.34819,-2.05761 -1.41259,-2.78063 -0.36056,-4.04825 0.70444,-0.84879 2.22017,-1.40904 3.36829,-1.245 3.73097,0.53307 3.14187,7.70329 -0.63944,7.78294 -0.39982,0.008 -1.46555,-1.11193 -2.36829,-2.48969 z m 4.09524,-3.49499 c 0.33992,-0.55 -0.11008,-1 -1,-1 -0.88992,0 -1.33992,0.45 -1,1 0.33992,0.55 0.78992,1 1,1 0.21008,0 0.66008,-0.45 1,-1 z m 29.299997,5.8 c 1.62889,-1.62889 1.51989,-7.28962 -0.16732,-8.68989 -2.79098,-2.3163 -3.90098,1.38034 -2.74446,9.13989 0.16703,1.12069 1.5557,0.90608 2.91178,-0.45 z m -88.341116,0.13347 c -0.362533,-0.58659 -0.444683,-1.281 -0.182555,-1.54313 0.262128,-0.26213 0.743066,0.21781 1.068751,1.06653 0.676184,1.76211 0.09985,2.07206 -0.886196,0.4766 z"
         id="path4550"
         inkscape:connector-curvature="0" />
      <path
         style="fill:#2e4d5c"
         d="m 56.853073,1025.1492 c -0.32011,-0.8342 -0.356,-2.6989 -0.0798,-4.1439 0.69464,-3.6338 -1.74382,-8.9648 -5.03067,-10.9982 -5.0132,-3.1014 -10.38739,-8.7823 -12.8371,-13.56968 -3.273386,-6.39714 -4.965049,-14.39498 -3.434761,-16.23887 1.973421,-2.37782 2.146361,-7.74339 0.314809,-9.76723 -2.621818,-2.89708 -2.208436,-22.36078 0.634702,-29.88463 2.61074,-6.90881 9.60203,-16.88079 11.83502,-16.88079 0.90605,0 3.15091,-1.4573 4.98858,-3.23844 2.688,-2.60532 3.5133,-2.96002 4.22139,-1.81431 0.99141,1.60413 1.85568,1.12455 7.72767,-4.28802 l 3.19508,-2.94509 0.66333,2.64293 c 0.76643,3.05367 1.22949,3.18367 4.12254,1.1573 1.87624,-1.31417 2.18683,-1.31417 2.69112,0 0.83196,2.16806 2.63286,1.81623 2.63286,-0.51437 0,-2.59029 0.62686,-2.52199 4.58889,0.5 3.78468,2.88672 5.41111,3.16057 5.41111,0.9111 0,-1.22823 0.71274,-0.98916 3.14002,1.05326 1.72701,1.45319 3.73361,2.41437 4.45912,2.13597 2.35457,-0.90354 10.781287,5.93234 15.109497,12.25705 5.87085,8.57893 7.388,14.3476 7.2076,27.40543 -0.0818,5.91956 -0.5464,11.00861 -1.03247,11.30902 -1.15398,0.7132 -1.11379,7.51627 0.0553,9.36387 0.7529,1.18984 1.17839,1.21168 2.48468,0.12755 0.86692,-0.71948 1.61175,-2.04054 1.65517,-2.9357 0.0554,-1.1422 0.23646,-1.23347 0.60716,-0.30607 0.29052,0.72682 -0.36441,2.30182 -1.4554,3.5 -1.09096,1.19818 -2.29508,3.97852 -2.6758,6.17852 -1.72284,9.95559 -8.96039,20.1154 -17.39491,24.4184 -4.224547,2.1552 -5.428337,4.6509 -5.575337,11.5587 -0.1063,4.9954 -1.79975,5.4796 -8.97694,2.5666 -3.88132,-1.5753 -5.88225,-1.8919 -7.67845,-1.2148 -1.46546,0.5525 -3.39895,0.554 -4.87342,0 -1.80379,-0.673 -3.68643,-0.3775 -7.18538,1.1277 -5.63872,2.4257 -8.72007,2.595 -9.51521,0.5229 z m 8.05579,-1.6221 5.58898,-2.1388 0,-4.4122 c 0,-4.0328 -0.27947,-4.529 -3.25,-5.7696 -1.7875,-0.7465 -4.9375,-1.6736 -7,-2.0602 -3.57452,-0.6701 -3.75,-0.5777 -3.75,1.974 0,1.4724 0.53243,3.66 1.18319,4.8613 0.65075,1.2014 1.06634,3.8718 0.92353,5.9343 -0.14281,2.0625 -0.0403,3.75 0.22783,3.75 0.26811,0 3.00252,-0.9625 6.07647,-2.1388 z m 28.4633,-2.1112 c -0.11981,-2.3375 0.30946,-5.2329 0.95392,-6.4343 0.64447,-1.2013 1.17176,-3.1639 1.17176,-4.3613 0,-1.9739 -0.34976,-2.1114 -3.75,-1.474 -2.0625,0.3866 -5.2125,1.3137 -7,2.0602 -2.90362,1.2127 -3.25,1.7864 -3.25,5.3827 0,3.5283 0.40046,4.2324 3.24353,5.7026 2.66858,1.38 4.79263,2.1966 8.55255,3.2881 0.16284,0.047 0.19805,-1.8265 0.0782,-4.164 z m -15.07432,0.05 c 0.66,-0.66 1.2,-3.0869 1.2,-5.393 0,-4.4718 -1.60081,-5.9859 -5.14088,-4.8623 -3.54996,1.1267 -2.07048,11.4553 1.64088,11.4553 0.605,0 1.64,-0.54 2.3,-1.2 z m 14.38538,-15.1023 c 9.889637,-4.8385 13.279157,-14.09031 7.338587,-20.03087 -1.524697,-1.52471 -1.454997,-1.8907 0.96404,-5.06222 3.79964,-4.98159 4.25091,-9.51758 1.44376,-14.51222 -4.306127,-7.66172 -12.547817,-9.65772 -22.576217,-5.46759 -3.00536,1.25572 -3.98247,1.18526 -9.54378,-0.68821 -9.26299,-3.12048 -15.52744,-1.36879 -19.79416,5.53491 -3.22336,5.2155 -2.15771,12.67756 2.34402,16.41366 1.30573,1.08366 1.18829,1.68925 -0.93406,4.81671 -2.85749,4.21075 -3.00593,6.27707 -0.78684,10.95345 3.68564,7.76688 11.94679,11.19478 26.393,10.95158 8.17487,-0.1377 10.33445,-0.5523 15.15165,-2.9092 z m -31.72051,-28.75454 c -0.35923,-0.58126 -0.37722,-2.15626 -0.04,-3.5 0.4304,-1.71485 1.27824,-2.41963 2.84414,-2.36421 1.22702,0.0434 1.66845,0.30592 0.98095,0.58333 -1.97386,0.79648 -1.45619,2.33772 0.78522,2.33772 1.72531,0 1.87221,0.30452 0.96482,2 -1.14133,2.13259 -4.45143,2.69662 -5.53513,0.94316 z m 25.94609,-0.31461 c -0.82027,-2.13759 -0.13523,-4.88815 1.33972,-5.37925 0.79389,-0.26433 1.02874,0.16195 0.64301,1.16714 -0.72607,1.89211 0.69597,2.08313 2.48326,0.33356 1.03094,-1.00919 1.21396,-0.67205 0.95,1.75 -0.24275,2.22742 -0.90753,3.08244 -2.58142,3.32014 -1.32218,0.18775 -2.49436,-0.30501 -2.83457,-1.19159 z m -54.952079,2.30492 c -0.362533,-0.58659 -0.444683,-1.281 -0.182555,-1.54313 0.262128,-0.26213 0.743066,0.21781 1.068751,1.06653 0.676184,1.76211 0.09985,2.07206 -0.886196,0.4766 z m -1.379934,-4.5168 c 0.04798,-1.16495 0.284941,-1.40191 0.604167,-0.60417 0.288871,0.72187 0.253344,1.58437 -0.07895,1.91667 -0.332292,0.33229 -0.568641,-0.25834 -0.52522,-1.3125 z m 91,-2 c 0.048,-1.16495 0.28494,-1.40191 0.60416,-0.60417 0.28887,0.72187 0.25335,1.58437 -0.0789,1.91667 -0.3323,0.33229 -0.56864,-0.25834 -0.52522,-1.3125 z"
         id="path4548"
         inkscape:connector-curvature="0" />
      <path
         style="fill:#143544"
         d="m 56.853733,1025.151 c -0.31973,-0.8333 -0.31496,-2.5208 0.0106,-3.75 1.00742,-3.8038 -2.08587,-10.1292 -5.97865,-12.2256 -4.25914,-2.2937 -9.63922,-8.1109 -12.22132,-13.21444 -2.55552,-5.05094 -4.538609,-14.44706 -3.220986,-15.2614 0.549576,-0.33965 1.270686,-2.32564 1.602466,-4.41331 0.4431,-2.7881 0.15791,-4.28784 -1.074312,-5.64943 -1.435829,-1.58657 -1.618612,-3.69931 -1.268506,-14.6623 0.355568,-11.13401 0.746697,-13.54404 2.991638,-18.43366 2.63264,-5.73404 9.15826,-13.87496 11.12194,-13.87496 0.59731,0 2.62745,-1.4625 4.51142,-3.25 2.23656,-2.12205 3.58349,-2.81617 3.88094,-2 0.70212,1.92658 1.74988,1.54222 6.41042,-2.35155 2.95843,-2.47169 4.42467,-3.17754 4.67384,-2.25 1.07348,3.99603 1.14541,4.0299 4.09594,1.92893 2.44856,-1.74352 2.98873,-1.83235 3.47274,-0.57103 0.82349,2.14597 2.31231,1.83921 2.95235,-0.60831 0.54283,-2.07579 0.59216,-2.06957 3.96102,0.5 3.77443,2.8789 5.33185,3.2297 6.00206,1.35196 0.30673,-0.85939 1.25436,-0.50736 3.03245,1.12651 1.42246,1.30708 3.2528,2.12075 4.06742,1.80816 3.74603,-1.43749 16.287627,11.33735 19.800017,20.16823 2.84539,7.15394 3.63987,27.96713 1.20916,31.67687 -1.2766,1.94833 -1.25663,2.78888 0.16582,6.97859 1.79568,5.28906 1.39702,9.46273 -1.54428,16.16731 -2.31867,5.28533 -9.14578,12.73353 -14.60342,15.93193 -4.514037,2.6454 -5.775957,5.2018 -5.857837,11.8671 -0.0622,5.0659 -1.76084,5.4905 -8.89653,2.2236 -3.94707,-1.807 -5.80996,-2.1896 -7.11244,-1.4607 -0.97057,0.5432 -3.26154,0.7447 -5.09103,0.4478 -2.06307,-0.3348 -5.25259,0.1921 -8.39831,1.3874 -6.11442,2.3233 -7.92828,2.4093 -8.69462,0.4123 z m 8.70873,-1.6082 c 4.9114,-2.1129 4.93538,-2.146 4.93538,-6.8174 l 0,-4.6943 -5.33789,-1.6826 c -9.19285,-2.8978 -10.6296,-2.1411 -8.07191,4.2512 0.94625,2.3649 1.35941,5.1308 0.98768,6.6119 -1.23916,4.9372 0.30851,5.4191 7.48674,2.3312 z m 28.15505,-1.9313 c -0.15418,-1.8352 0.41655,-5.0784 1.26828,-7.2071 2.47423,-6.1837 0.9719,-6.9313 -8.15006,-4.0559 l -5.33789,1.6826 0,4.7475 0,4.7475 5.25,2.0149 c 2.8875,1.1081 5.7,1.8781 6.25,1.711 0.55,-0.167 0.87385,-1.8053 0.71967,-3.6405 z m -13.95104,-2.8802 c 1.18427,-4.6001 -0.4106,-8.0654 -3.71201,-8.0654 -3.95607,0 -5.54969,4.2578 -3.55613,9.5013 0.79249,2.0844 1.56005,2.5657 3.69221,2.3151 2.1224,-0.2495 2.87874,-1.0428 3.57593,-3.751 z m -1.7084,-9.2199 c 3.02401,1.3778 14.32891,-1.7608 18.89994,-5.2473 3.416277,-2.6057 6.539827,-8.0314 6.539827,-11.35978 0,-1.07763 -1.0924,-3.56908 -2.42757,-5.53655 -2.122347,-3.12746 -2.239787,-3.73305 -0.93406,-4.81671 4.83061,-4.00905 5.60558,-11.59025 1.76286,-17.24532 -4.436287,-6.5286 -10.730057,-8.01554 -20.151227,-4.76086 -5.07023,1.75158 -5.42977,1.75158 -10.5,0 -6.64908,-2.29702 -10.34806,-2.32902 -14.73007,-0.12743 -8.69094,4.36648 -10.63163,16.34626 -3.59419,22.18682 1.38909,1.15284 1.28803,1.61308 -0.93406,4.25389 -5.92688,7.04369 -0.41043,17.43704 11.22728,21.15294 6.89949,2.203 8.55494,2.4169 10.65753,1.3771 1.19228,-0.5897 2.71777,-0.5448 4.18374,0.1232 z m -17.22385,-32.41129 c -0.70934,-1.84852 0.59305,-4.57735 2.48574,-5.20825 0.72171,-0.24057 0.94347,0.22133 0.57157,1.19048 -0.40582,1.05756 -0.0495,1.58356 1.07265,1.58356 2.53899,0 1.4303,3.4405 -1.23103,3.82014 -1.40487,0.2004 -2.48911,-0.31796 -2.89893,-1.38593 z m 2.66362,0.1248 c 0,-0.24254 -0.45,-0.71909 -1,-1.05901 -0.55,-0.33992 -1,-0.14148 -1,0.44098 0,0.58246 0.45,1.05902 1,1.05902 0.55,0 1,-0.19844 1,-0.44099 z m 23.41096,0.0695 c -0.82027,-2.13758 -0.13523,-4.88814 1.33972,-5.37924 0.83099,-0.27669 1.02607,0.16891 0.58133,1.32788 -0.54527,1.42095 -0.25635,1.63629 1.55863,1.16166 1.85223,-0.48436 2.17582,-0.21633 1.91868,1.58926 -0.37065,2.60254 -4.51555,3.60103 -5.39836,1.30044 z"
         id="path4546"
         inkscape:connector-curvature="0" />
      <path
         style="fill:#11303e"
         d="m 56.957743,1025.601 c -0.36198,-0.5857 -0.38158,-2.5391 -0.0436,-4.3409 0.81358,-4.3367 -1.57478,-9.8897 -4.90647,-11.4078 -1.44245,-0.6572 -2.36493,-1.6119 -2.04995,-2.1216 0.31499,-0.5096 0.0458,-1.2522 -0.59812,-1.6502 -0.73122,-0.4519 -0.90292,-0.2902 -0.45729,0.4309 0.39248,0.635 0.26356,1.1545 -0.28644,1.1545 -1.00132,0 -2.57393,-1.9134 -2.60272,-3.1667 -0.008,-0.3666 -0.42496,-1.0416 -0.92564,-1.5 -0.52889,-0.4841 -0.60891,-0.3095 -0.19098,0.4167 1.78223,3.097 -0.60684,0.8078 -3.41193,-3.2692 -2.18666,-3.17825 -2.92333,-5.18124 -2.48253,-6.75005 0.44262,-1.57533 0.34811,-1.82833 -0.32169,-0.86111 -1.45917,2.10714 -3.525921,-5.20981 -2.737306,-9.69094 1.760046,-10.00106 1.786126,-12.15269 0.154896,-12.77865 -1.325589,-0.50868 -1.60013,-2.40701 -1.60013,-11.06422 0,-10.60122 1.51362,-19.75446 3.10413,-18.77147 0.48013,0.29673 0.60935,-0.14743 0.28717,-0.98704 -0.52243,-1.36142 3.05239,-8.57732 4.24928,-8.57732 0.2626,0 0.15637,0.51953 -0.23607,1.15451 -0.44563,0.72104 -0.27393,0.88282 0.45729,0.4309 0.64395,-0.39799 0.88933,-1.17908 0.54527,-1.73577 -0.68483,-1.10808 4.31818,-6.82483 6.03002,-6.89028 0.5846,-0.0224 2.61461,-1.36709 4.51112,-2.9883 2.30401,-1.96956 3.68078,-2.57137 4.14908,-1.81365 0.4289,0.69398 1.4191,0.82185 2.55179,0.32955 1.018,-0.44246 2.22187,-0.72189 2.67525,-0.62094 0.45338,0.10094 0.56159,-0.24158 0.24047,-0.76117 -0.32112,-0.51959 0.65793,-1.92605 2.17567,-3.12548 l 2.75953,-2.18077 0.31642,2.6007 c 0.37979,3.12147 1.12086,3.22447 4.43625,0.61659 2.51564,-1.97881 2.52376,-1.97881 3.04124,0 0.65244,2.49494 2.70609,2.60936 2.70609,0.15078 0,-1.00834 0.28745,-2.12079 0.63878,-2.47212 0.77491,-0.77491 6.95949,4.29591 6.62322,5.43046 -0.13091,0.44166 0.43159,0.54606 1.25,0.23201 0.8184,-0.31405 1.488,-1.21369 1.488,-1.99919 0,-1.1249 0.43068,-1.1977 2.02801,-0.34284 1.16304,0.62244 1.73442,1.5971 1.33967,2.28518 -0.37858,0.65991 -0.33202,0.87816 0.10348,0.48501 0.43549,-0.39315 1.59634,-0.28424 2.57965,0.24201 1.18187,0.63252 1.90652,0.60082 2.13796,-0.0935 0.19256,-0.57768 2.27101,0.34115 4.618757,2.04185 2.34776,1.70071 4.03146,3.47597 3.74157,3.94503 -0.28989,0.46905 0.25547,1.46631 1.21191,2.21613 1.60625,1.25924 1.6268,1.21064 0.26925,-0.63669 -1.0642,-1.44815 -0.71116,-1.32343 1.27947,0.452 1.51207,1.3486 2.51611,3.05948 2.2312,3.80194 -0.28491,0.74246 -0.0923,1.08685 0.42794,0.7653 1.24653,-0.7704 4.31468,5.21295 3.41749,6.66464 -0.4139,0.6697 -0.24695,0.84799 0.41246,0.44045 1.9982,-1.23495 3.6882,7.46804 3.68609,18.98229 -10e-4,7.24903 -0.42453,11.6157 -1.21845,12.57232 -1.40727,1.69564 -0.93899,7.30578 0.783,9.38065 1.91288,2.30488 -1.97886,17.22011 -4.14399,15.88199 -0.48541,-0.3 -0.58624,0.22674 -0.22408,1.17053 0.41438,1.07985 0.26664,1.4738 -0.39855,1.0627 -0.60112,-0.37152 -0.9979,0.0969 -0.91994,1.08595 0.0841,1.06643 -0.44313,1.61033 -1.3629,1.40593 -0.825,-0.1834 -1.1664,2e-4 -0.75868,0.408 1.03905,1.039 -1.23906,3.5447 -2.50914,2.7598 -0.57266,-0.3539 -0.75728,-0.1841 -0.41027,0.3773 0.88487,1.4318 -2.92393,4.6522 -4.41341,3.7317 -0.74793,-0.4623 -0.95948,-0.335 -0.54849,0.33 0.36848,0.5962 -0.24792,1.3735 -1.37213,1.7303 -3.301147,1.0478 -5.487877,5.4068 -5.487877,10.9395 0,6.2102 -1.32666,6.6983 -8.84771,3.255 -3.89705,-1.7841 -5.81833,-2.1849 -7.08246,-1.4774 -0.95409,0.5339 -3.22627,0.6909 -5.0493,0.3489 -2.22148,-0.4167 -5.00968,0.046 -8.45458,1.4042 -5.80717,2.289 -7.65766,2.4956 -8.60605,0.9611 z m 9.84845,-2.4195 c 3.54233,-1.4801 3.69165,-1.7403 3.69165,-6.435 l 0,-4.8926 -4.67814,-1.594 c -5.30167,-1.8065 -8.92659,-2.0426 -9.79465,-0.638 -0.32496,0.5258 0.114,2.6429 0.97548,4.7047 0.90925,2.1761 1.311,4.9111 0.95771,6.5196 -1.15088,5.2399 0.7166,5.7328 8.84795,2.3353 z m 26.96138,-1.892 c -0.12665,-2.0896 0.46841,-5.1503 1.32235,-6.8017 2.98611,-5.7745 -0.0913,-7.2341 -8.91394,-4.2279 l -4.67814,1.594 0,4.7785 c 0,4.7382 0.0401,4.7963 4.75,6.8862 6.47542,2.8733 7.80509,2.4791 7.51973,-2.2291 z m -13.89448,-1.7332 c 1.19719,-3.4253 0.0947,-7.5685 -2.36414,-8.8845 -4.13584,-2.2134 -7.67131,5.0235 -4.94385,10.1198 1.56543,2.925 6.1232,2.1546 7.30799,-1.2353 z m -5.87525,-9.826 c 1.1,-0.4373 3.05703,-0.3999 4.34896,0.083 3.4332,1.2836 15.36182,-2.5157 19.61031,-6.2459 5.835187,-5.12341 7.000077,-13.36601 2.468527,-17.467 -1.922247,-1.73961 -1.923517,-1.8116 -0.0683,-3.85369 4.63673,-5.10373 5.40942,-10.98749 2.14588,-16.34011 -3.252027,-5.33375 -7.554617,-7.44443 -14.093247,-6.91358 -3.07332,0.24951 -7.01082,1.1895 -8.75,2.08887 -2.91141,1.50555 -3.40895,1.50758 -6.27467,0.0257 -4.74512,-2.4538 -12.9168,-2.99514 -16.58423,-1.09863 -8.35845,4.32232 -10.8588,13.43171 -5.75027,20.94959 l 2.55298,3.75705 -2.05298,2.60995 c -3.44148,4.37513 -2.22433,11.16022 2.82106,15.72625 1.14334,1.0347 1.79488,2.3406 1.44787,2.9021 -0.35732,0.5782 -0.13923,0.717 0.50291,0.3201 0.62362,-0.3854 2.15309,-0.1553 3.39882,0.5114 1.93368,1.0349 10.24958,3.6622 11.77636,3.7206 0.275,0.01 1.4,-0.3386 2.5,-0.7759 z m -13.16362,-32.63019 c -0.70934,-1.84852 0.59305,-4.57735 2.48574,-5.20825 0.72171,-0.24057 0.94347,0.22133 0.57157,1.19048 -0.40582,1.05756 -0.0495,1.58356 1.07265,1.58356 2.53899,0 1.4303,3.4405 -1.23103,3.82014 -1.40487,0.2004 -2.48911,-0.31796 -2.89893,-1.38593 z m 2.66362,0.1248 c 0,-0.24254 -0.45,-0.71909 -1,-1.05901 -0.55,-0.33992 -1,-0.14148 -1,0.44098 0,0.58246 0.45,1.05902 1,1.05902 0.55,0 1,-0.19844 1,-0.44099 z m 23.38404,-6e-4 c -0.79648,-2.07559 -0.0889,-4.82448 1.36664,-5.30911 0.83099,-0.27668 1.02607,0.16891 0.58133,1.32788 -0.54152,1.41118 -0.25519,1.63599 1.49932,1.17718 1.64693,-0.43069 2.16867,-0.12269 2.16867,1.28024 0,1.01605 -0.45,2.12548 -1,2.4654 -0.55,0.33992 -1,0.14147 -1,-0.44099 0,-0.58245 -0.7875,-1.05212 -1.75,-1.0437 -1.49555,0.0131 -1.5319,0.15626 -0.25,0.98469 1.04886,0.67782 1.11461,0.97398 0.21862,0.98469 -0.70477,0.008 -1.53032,-0.63341 -1.83458,-1.42628 z m 29.299067,10.25409 c -0.31922,-0.79774 -0.55618,-0.56078 -0.60416,0.60417 -0.0434,1.05416 0.19292,1.64479 0.52522,1.3125 0.33229,-0.3323 0.36781,-1.1948 0.0789,-1.91667 z m -79.999997,-23 c -0.319222,-0.79774 -0.556179,-0.56078 -0.604163,0.60417 -0.04342,1.05416 0.192928,1.64479 0.525223,1.3125 0.33229,-0.3323 0.36782,-1.1948 0.0789,-1.91667 z m 9.59437,-4.43813 c 2.74504,-3.48975 9.21928,-6.3253 14.50407,-6.35241 2.35485,-0.0121 6.96735,0.88282 10.25,1.98867 l 5.96845,2.01062 5.96845,-2.01062 c 10.41665,-3.50912 18.267417,-2.18116 24.115397,4.07913 1.60388,1.71696 2.91615,2.56495 2.91615,1.88441 0,-2.56809 -8.49755,-9.76179 -12.946087,-10.95965 -4.75666,-1.28084 -11.50209,-0.67881 -16.71301,1.49164 -2.75598,1.14792 -4.02628,1.05112 -9.95515,-0.75857 -5.91742,-1.80621 -7.49602,-1.92758 -12.21006,-0.9388 -6.08499,1.27634 -10.8015,4.4511 -13.48223,9.0751 -2.20075,3.79609 -1.24819,4.09105 1.58402,0.49048 z m 71.428247,-5.62437 c -0.23835,-1.2375 -0.43337,-0.225 -0.43337,2.25 0,2.475 0.19502,3.4875 0.43337,2.25 0.23836,-1.2375 0.23836,-3.2625 0,-4.5 z m -69.578177,-28.5 c 1.24388,-1.58606 1.20851,-1.62143 -0.37755,-0.37756 -0.9625,0.75485 -1.75,1.54235 -1.75,1.75 0,0.82304 0.82119,0.29331 2.12755,-1.37244 z"
         id="path4544"
         inkscape:connector-curvature="0" />
      <path
         style="fill:#092836"
         d="m 61.457973,1025.1425 c 2.45306,-0.7643 4.61353,-1.2363 4.80104,-1.0488 0.51161,0.5116 -5.81964,2.5822 -7.66039,2.5053 -0.88043,-0.037 0.40628,-0.6922 2.85935,-1.4565 z m 24.12175,-1.0183 c -3.72368,-1.7333 -5.74082,-2.1994 -6.45,-1.4902 -0.56753,0.5675 -1.49201,1.0319 -2.05439,1.0319 -0.56237,0 0.001,-0.7172 1.25292,-1.5938 2.98873,-2.0934 2.7541,-8.9609 -0.37679,-11.0284 -5.29109,-3.494 -9.45827,7.4043 -4.23111,11.0655 1.22237,0.8562 1.76237,1.5567 1.2,1.5567 -0.56238,0 -1.56251,-0.54 -2.22251,-1.2 -0.93333,-0.9333 -1.46667,-0.9333 -2.4,0 -0.66,0.66 -1.6725,1.1863 -2.25,1.1696 -0.5775,-0.017 -0.2625,-0.4891 0.7,-1.0497 1.2865,-0.7493 1.75,-2.3055 1.75,-5.8756 l 0,-4.8563 -4.67814,-1.594 c -5.99865,-2.0439 -10.0778,-2.061 -10.49854,-0.044 -0.28855,1.3834 -0.53839,1.3754 -2.32332,-0.074 -1.1,-0.8934 -1.40756,-1.3208 -0.68346,-0.95 2.01833,1.0338 4.32468,-2.6256 2.85078,-4.5231 -1.01488,-1.3066 -0.94022,-1.3248 0.57167,-0.1396 0.95644,0.7499 1.55198,1.6659 1.32342,2.0358 -0.22857,0.3698 0.33889,0.7076 1.26101,0.7507 0.92212,0.043 4.28014,0.794 7.46227,1.6688 3.61083,0.9927 6.61611,1.2834 7.99482,0.7734 1.21502,-0.4495 3.4004,-0.402 4.8564,0.1056 1.98954,0.6936 4.39759,0.3358 9.69218,-1.4399 3.8747,-1.2996 6.82171,-2.0017 6.5489,-1.5602 -0.27282,0.4414 0.17254,0.8026 0.98967,0.8026 2.25546,0 2.42471,3.1259 0.36177,6.6812 -1.29903,2.2389 -1.68389,4.3126 -1.29914,7 l 0.54671,3.8188 -1.07224,-3.4628 c -0.8531,-2.7551 -0.74856,-4.1415 0.51151,-6.7839 0.87105,-1.8267 1.58373,-3.9809 1.58373,-4.7872 0,-1.9559 -4.36491,-1.9018 -10.32186,0.1279 l -4.67814,1.594 0,4.7829 c 0,4.7555 0.0271,4.7944 4.75,6.804 2.6125,1.1116 5.65,2.2398 6.75,2.5071 2,0.486 2,0.486 0,0.5922 -1.1,0.058 -4.43815,-1.0287 -7.41812,-2.4159 z m -29.00293,-1.0416 c 0.048,-1.165 0.28494,-1.4019 0.60416,-0.6042 0.28887,0.7219 0.25335,1.5844 -0.0789,1.9167 -0.3323,0.3323 -0.56864,-0.2584 -0.52522,-1.3125 z m 0.74997,-4.4167 c -0.31445,-1.375 -0.88324,-3.4 -1.26398,-4.5 -0.38073,-1.1 0.0394,-0.7365 0.93361,0.8078 0.89422,1.5442 1.46301,3.5692 1.26398,4.5 -0.25811,1.2069 -0.52582,0.9753 -0.93361,-0.8078 z m 48.671077,-13 c 0.99549,-1.1 2.03498,-2 2.30998,-2 0.275,0 -0.31449,0.9 -1.30998,2 -0.99549,1.1 -2.03498,2 -2.30998,2 -0.275,0 0.31449,-0.9 1.30998,-2 z m -61.627557,-1.75 c -1.24387,-1.5861 -1.2085,-1.6214 0.37756,-0.3776 0.9625,0.7549 1.75,1.5424 1.75,1.75 0,0.8231 -0.82119,0.2933 -2.12756,-1.3724 z m 54.12756,-0.75 c 1.29175,-1.375 2.573627,-2.5 2.848627,-2.5 0.275,0 -0.55688,1.125 -1.848627,2.5 -1.29175,1.375 -2.57363,2.5 -2.84863,2.5 -0.275,0 0.55688,-1.125 1.84863,-2.5 z m -47.12756,-2.25 c -1.24387,-1.58606 -1.2085,-1.62143 0.37756,-0.3776 0.9625,0.7549 1.75,1.5424 1.75,1.75 0,0.8231 -0.82119,0.2933 -2.12756,-1.3724 z m 50.691847,-2.54313 c 0.37553,-0.98622 0.93469,-1.54122 1.24258,-1.23333 0.30789,0.30788 6.4e-4,1.11479 -0.68278,1.79313 -0.98762,0.98026 -1.10248,0.8654 -0.5598,-0.5598 z m -52.957297,-1.28866 c -1.18747,-3.09449 -0.57703,-7.18658 1.458,-9.7737 1.1399,-1.44915 1.74615,-3.18951 1.35329,-3.88486 -0.54282,-0.96077 -0.41535,-0.98626 0.53724,-0.10743 0.98852,0.91198 0.78134,1.78467 -0.99362,4.18545 -1.76902,2.39272 -2.12744,3.89148 -1.69739,7.09777 0.57413,4.28045 0.35289,5.11586 -0.65752,2.48277 z m -9.29673,-4.54498 c -1.88251,-3.85271 -2.22546,-7.87323 -0.67159,-7.87323 0.74873,0 1.36133,0.66087 1.36133,1.46861 0,0.95894 0.5775,1.24701 1.66405,0.83006 1.21241,-0.46524 1.4405,-0.27686 0.84042,0.6941 -0.45299,0.73295 -1.09609,2.66488 -1.42912,4.29317 l -0.60549,2.96052 -1.1596,-2.37323 z m 63.847627,0.12677 c 0,-1.375 0.22698,-1.9375 0.50439,-1.25 0.27741,0.6875 0.27741,1.8125 0,2.5 -0.27741,0.6875 -0.50439,0.125 -0.50439,-1.25 z m 8.9055,0.18426 c -0.0349,-1.27366 -0.56574,-3.25439 -1.17972,-4.40163 -0.94241,-1.76091 -0.86452,-1.98926 0.5,-1.46565 1.05778,0.40591 1.61633,0.0874 1.61633,-0.92169 0,-2.63974 3.48004,-1.12146 3.70156,1.61492 l 0.20155,2.48979 -0.93746,-2.5 c -0.77511,-2.06706 -0.85822,-1.8073 -0.4799,1.5 0.30698,2.68359 0.15469,3.51427 -0.46274,2.52407 -0.74957,-1.20211 -1.1036,-1.01659 -1.90827,1 l -0.98797,2.47593 -0.0634,-2.31574 z m -75.439847,-0.72292 c -0.34295,-0.8937 -0.59502,-2.15061 -0.56015,-2.79313 0.0349,-0.64252 0.49453,-0.0904 1.02148,1.22697 0.52695,1.31735 0.77902,2.57426 0.56015,2.79313 -0.21887,0.21887 -0.67853,-0.33327 -1.02148,-1.22697 z m -1.465645,-6.46134 c 0,-1.375 0.226973,-1.9375 0.504385,-1.25 0.27741,0.6875 0.27741,1.8125 0,2.5 -0.277412,0.6875 -0.504385,0.125 -0.504385,-1.25 z m 64.247095,-0.25 -1.90499,-2.25 2.249997,1.90499 c 2.11444,1.79021 2.70524,2.59501 1.90499,2.59501 -0.18976,0 -1.20226,-1.0125 -2.249997,-2.25 z m 17.673957,-2.33333 c 0.048,-1.16495 0.28494,-1.4019 0.60416,-0.60417 0.28887,0.72187 0.25335,1.58437 -0.0789,1.91667 -0.3323,0.33229 -0.56864,-0.25834 -0.52522,-1.3125 z m -17.07895,-0.79423 c 0,-0.20765 0.7875,-0.99515 1.75,-1.75 1.58606,-1.24387 1.62143,-1.2085 0.37756,0.37756 -1.30637,1.66575 -2.12756,2.19548 -2.12756,1.37244 z m -39.690527,-5.25836 c -0.67025,-1.74664 0.63522,-4.51231 2.40903,-5.10358 0.59159,-0.1972 1.00944,0.45102 0.92856,1.44048 -0.0809,0.98946 0.41544,1.68652 1.10294,1.54902 0.6875,-0.1375 1.25,0.35 1.25,1.08333 0,2.36121 -1.28699,2.71544 -3.33841,0.91885 -1.90378,-1.66728 -1.9698,-1.66739 -1.36254,-0.002 0.351,0.9625 0.41318,1.75 0.13818,1.75 -0.275,0 -0.78249,-0.73617 -1.12776,-1.63592 z m 26.07457,0.19433 c -0.79648,-2.07559 -0.0889,-4.82448 1.36664,-5.30911 0.83099,-0.27668 1.02607,0.16891 0.58133,1.32788 -0.54152,1.41118 -0.25519,1.63599 1.49932,1.17718 1.64693,-0.43069 2.16867,-0.12269 2.16867,1.28024 0,1.01605 -0.45,2.12548 -1,2.4654 -0.55,0.33992 -1,0.18962 -1,-0.334 0,-0.52361 -0.7251,-1.23027 -1.61134,-1.57035 -1.153,-0.44245 -1.44638,-0.18844 -1.03139,0.89301 0.31898,0.83124 0.35496,1.51134 0.08,1.51134 -0.275,0 -0.74893,-0.64872 -1.05319,-1.44159 z m 17.337147,-2.77713 c 0.28037,-2.48744 -0.0151,-5.55679 -0.66281,-6.88486 -1.10853,-2.27301 -1.08863,-2.29646 0.38645,-0.45529 1.68429,2.10229 2.06288,8.20884 0.64749,10.44372 -0.54156,0.85513 -0.68353,-0.33205 -0.37113,-3.10357 z m -56.642237,0.63539 c 0.048,-1.16495 0.28494,-1.4019 0.60416,-0.60417 0.28888,0.72187 0.25335,1.58437 -0.079,1.91667 -0.33229,0.33229 -0.56864,-0.25834 -0.52522,-1.3125 z m -9.92106,-1.41667 c 0,-1.375 0.22698,-1.9375 0.50439,-1.25 0.27741,0.6875 0.27741,1.8125 0,2.5 -0.27741,0.6875 -0.50439,0.125 -0.50439,-1.25 z m 77.300987,0.93347 c -0.36253,-0.58659 -0.44468,-1.281 -0.18255,-1.54313 0.26212,-0.26213 0.74306,0.21781 1.06875,1.06653 0.67618,1.76211 0.0999,2.07206 -0.8862,0.4766 z m -67.379927,-4.5168 c 0.048,-1.16495 0.28494,-1.4019 0.60416,-0.60417 0.28888,0.72187 0.25335,1.58437 -0.079,1.91667 -0.33229,0.33229 -0.56864,-0.25834 -0.52522,-1.3125 z M 34.876012,958.6659 c 0,-6.325 0.162369,-8.9125 0.360819,-5.75 0.198451,3.1625 0.198451,8.3375 0,11.5 -0.19845,3.1625 -0.360819,0.575 -0.360819,-5.75 z m 14.621831,6.68709 c 0,-0.1721 1.4625,-1.6346 3.25,-3.25 l 3.25,-2.93709 -2.93709,3.25 c -2.73778,3.02945 -3.56291,3.70965 -3.56291,2.93709 z m 51.449907,-1.76814 c -0.36747,-0.59458 -2.081527,-1.9429 -3.809017,-2.99627 -1.72749,-1.05336 -2.58549,-1.91689 -1.90667,-1.91894 1.27975,-0.004 8.297627,5.91507 7.074797,5.96695 -0.38004,0.0161 -0.99164,-0.45716 -1.35911,-1.05174 z m 16.8929,-6.41895 c 0.004,-4.4 0.17944,-6.07561 0.39069,-3.72357 0.21124,2.35204 0.20827,5.95204 -0.007,8 -0.21448,2.04796 -0.38732,0.12357 -0.38369,-4.27643 z m -44.342807,4 c -1.375,-0.78602 -2.02351,-1.44508 -1.44113,-1.46457 0.58238,-0.0195 1.93238,0.62526 3,1.43276 2.46898,1.86744 1.68038,1.88353 -1.55887,0.0318 z m -5.1875,-2.18312 c 0.72187,-0.28887 1.58437,-0.25334 1.91667,0.0789 0.33229,0.3323 -0.25834,0.56865 -1.3125,0.52522 -1.16495,-0.048 -1.4019,-0.28494 -0.60417,-0.60416 z m -7.05084,-1.02414 c 1.24391,-0.2392 3.04391,-0.23012 4,0.0202 0.95609,0.25029 -0.0617,0.44599 -2.26166,0.43489 -2.2,-0.0111 -2.98225,-0.21588 -1.73834,-0.45507 z m 25.98834,0.002 c 1.2375,-0.23836 3.2625,-0.23836 4.5,0 1.2375,0.23835 0.225,0.43337 -2.25,0.43337 -2.475,0 -3.4875,-0.19502 -2.25,-0.43337 z m 29.328947,-11.8776 c 0.048,-1.16495 0.28494,-1.4019 0.60416,-0.60417 0.28887,0.72187 0.25335,1.58438 -0.0789,1.91667 -0.3323,0.33229 -0.56864,-0.25834 -0.52522,-1.3125 z m -81,-2 c 0.04798,-1.16495 0.284941,-1.4019 0.604163,-0.60417 0.28887,0.72187 0.25335,1.58438 -0.079,1.91667 -0.332288,0.33229 -0.568637,-0.25834 -0.525216,-1.3125 z m 80,-1.08488 c -0.0434,-0.64252 -0.33793,-1.99252 -0.65446,-3 -0.54705,-1.74122 -0.51883,-1.7434 0.57078,-0.0441 0.63045,0.98322 0.92496,2.33322 0.65445,3 -0.35498,0.87499 -0.51379,0.88727 -0.57077,0.0441 z m -77.078947,-7.27275 c 0,-0.51754 0.44485,-1.21591 0.98855,-1.55193 0.56686,-0.35034 0.7345,0.0511 0.39301,0.94098 -0.66479,1.73242 -1.38156,2.04939 -1.38156,0.61095 z m 66.999997,-9.55901 c -2.42903,-2.475 -4.19142,-4.5 -3.91642,-4.5 0.275,0 2.48739,2.025 4.91642,4.5 2.42903,2.475 4.19142,4.5 3.91642,4.5 -0.275,0 -2.48739,-2.025 -4.91642,-4.5 z m -62.999997,3.18709 c 0,-0.1721 1.4625,-1.6346 3.25,-3.25 l 3.25,-2.93709 -2.93709,3.25 c -2.73778,3.02945 -3.56291,3.70965 -3.56291,2.93709 z m 9,-7.18709 c 1.29175,-1.375 2.57363,-2.5 2.84863,-2.5 0.275,0 -0.55688,1.125 -1.84863,2.5 -1.29174,1.375 -2.57363,2.5 -2.84863,2.5 -0.275,0 0.55689,-1.125 1.84863,-2.5 z m 46.44113,-2.05517 c -1.86402,-1.49339 -1.85176,-1.51185 0.30887,-0.46481 1.2375,0.59969 2.249997,1.29951 2.249997,1.55516 0,0.76522 -0.518607,0.54424 -2.558867,-1.09035 z m -40.98225,-0.51136 c -1.02606,-1.66021 -0.10511,-1.89043 1.33055,-0.33261 0.70918,0.76953 0.84824,1.39914 0.30901,1.39914 -0.53922,0 -1.27702,-0.47994 -1.63956,-1.06653 z m 35.41356,-0.68347 c -1.24387,-1.58606 -1.2085,-1.62143 0.37756,-0.37756 1.66575,1.30637 2.19548,2.12756 1.37244,2.12756 -0.20765,0 -0.99515,-0.7875 -1.75,-1.75 z m -31.87244,0.43709 c 0,-0.1721 1.4625,-1.6346 3.25,-3.25 l 3.25,-2.93709 -2.93709,3.25 c -2.73778,3.02945 -3.56291,3.70965 -3.56291,2.93709 z m 12.40499,-3.54544 c 2.03808,-2.29129 2.59501,-2.58793 2.59501,-1.3822 0,0.4177 -1.0125,1.38145 -2.25,2.14165 -2.24201,1.3773 -2.24323,1.3746 -0.34501,-0.75945 z m -5.2471,-1.14165 c 0,-1.375 0.22698,-1.9375 0.50439,-1.25 0.27741,0.6875 0.27741,1.8125 0,2.5 -0.27741,0.6875 -0.50439,0.125 -0.50439,-1.25 z m 13.2471,-0.25 -1.90499,-2.25 2.25,1.90499 c 2.11444,1.79021 2.70524,2.59501 1.90499,2.59501 -0.18976,0 -1.20226,-1.0125 -2.25,-2.25 z"
         id="path4542"
         inkscape:connector-curvature="0" />
    </g>
  </g>
</svg>
