<?xml version="1.0" encoding="UTF-8" standalone="no"?>
<!-- Created with Inkscape (http://www.inkscape.org/) -->

<svg
   xmlns:dc="http://purl.org/dc/elements/1.1/"
   xmlns:cc="http://creativecommons.org/ns#"
   xmlns:rdf="http://www.w3.org/1999/02/22-rdf-syntax-ns#"
   xmlns:svg="http://www.w3.org/2000/svg"
   xmlns="http://www.w3.org/2000/svg"
   xmlns:sodipodi="http://sodipodi.sourceforge.net/DTD/sodipodi-0.dtd"
   xmlns:inkscape="http://www.inkscape.org/namespaces/inkscape"
   width="150"
   height="150"
   id="svg5503"
   version="1.1"
   inkscape:version="0.48.5 r10040"
   sodipodi:docname="tags.svg">
  <defs
     id="defs5505" />
  <sodipodi:namedview
     id="base"
     pagecolor="#ffffff"
     bordercolor="#666666"
     borderopacity="1.0"
     inkscape:pageopacity="0.0"
     inkscape:pageshadow="2"
     inkscape:zoom="2.8284271"
     inkscape:cx="104.67149"
     inkscape:cy="87.078709"
     inkscape:document-units="px"
     inkscape:current-layer="layer1"
     showgrid="false"
     inkscape:window-width="956"
     inkscape:window-height="1025"
     inkscape:window-x="0"
     inkscape:window-y="0"
     inkscape:window-maximized="0">
    <inkscape:grid
       type="xygrid"
       id="grid6039"
       empspacing="5"
       visible="true"
       enabled="true"
       snapvisiblegridlinesonly="true" />
  </sodipodi:namedview>
  <metadata
     id="metadata5508">
    <rdf:RDF>
      <cc:Work
         rdf:about="">
        <dc:format>image/svg+xml</dc:format>
        <dc:type
           rdf:resource="http://purl.org/dc/dcmitype/StillImage" />
        <dc:title />
      </cc:Work>
    </rdf:RDF>
  </metadata>
  <g
     inkscape:label="Layer 1"
     inkscape:groupmode="layer"
     id="layer1"
     transform="translate(0,-902.36218)">
    <rect
       style="fill:#e74c3c;fill-opacity:1;stroke:none"
       id="rect6202"
       width="150"
       height="150"
       x="0"
       y="0"
       transform="translate(0,902.36218)"
       ry="75" />
    <path
       style="fill:none;stroke:#ffffff;stroke-width:3;stroke-linecap:butt;stroke-linejoin:miter;stroke-miterlimit:4;stroke-opacity:1;stroke-dasharray:none"
       d="M 38.658174,956.68989 C 7.7020196,957.17064 47.33921,1001.193 15.443889,1019.1899"
       id="path6182"
       inkscape:connector-curvature="0"
       sodipodi:nodetypes="cc" />
    <path
       style="fill:#216896;fill-opacity:1;stroke:none"
       d="m 38.263581,944.96235 -3.957676,9.10642 0.639261,1.35089 c 0.252528,-0.52984 0.688144,-0.99731 1.26005,-1.26796 1.318886,-0.6241 2.920829,-0.0513 3.544944,1.26758 0.624119,1.3189 0.0513,2.92084 -1.267587,3.54495 -0.571905,0.27064 -1.209612,0.31106 -1.779445,0.17037 l 3.196296,6.75444 9.551191,2.71384 60.789895,-28.76666 -11.18703,-23.64053 -60.789899,28.76666 z"
       id="path6080"
       inkscape:connector-curvature="0" />
    <path
       style="fill:#3498db;fill-opacity:1;stroke:none"
       d="m 34.28329,943.53911 -3.957676,9.10642 5.593519,11.82025 9.551192,2.71384 60.789895,-28.76666 -11.187031,-23.64052 -60.7899,28.76666 z m 1.921926,10.6126 c 1.318885,-0.62411 2.920828,-0.0513 3.544944,1.26758 0.624119,1.3189 0.0513,2.92084 -1.267587,3.54495 -1.318885,0.62411 -2.920829,0.0513 -3.544948,-1.2676 -0.624114,-1.31888 -0.05129,-2.92082 1.26759,-3.54494 z"
       id="path6041"
       inkscape:connector-curvature="0" />
    <path
       inkscape:connector-curvature="0"
       id="path6190"
       d="m 61.051892,1009.5187 -7.878306,6.0432 -0.09633,1.4915 c 0.477846,-0.3409 1.085569,-0.5384 1.716946,-0.4976 1.456061,0.094 2.578893,1.3723 2.485005,2.8281 -0.09403,1.4561 -1.372017,2.5791 -2.828075,2.485 -0.631425,-0.041 -1.20866,-0.3147 -1.638736,-0.7142 l -0.481544,7.4571 7.035691,7.0063 67.112928,4.3338 1.6854,-26.0994 -67.112981,-4.3338 z"
       style="fill:#13836d;fill-opacity:1;stroke:none" />
    <path
       inkscape:connector-curvature="0"
       id="path6192"
       d="m 58.261735,1006.3432 -7.878355,6.0433 -0.842685,13.0498 7.035643,7.0064 67.112982,4.3338 1.68536,-26.0994 -67.112945,-4.3339 z m -3.46753,10.2126 c 1.456061,0.094 2.578893,1.3723 2.485004,2.8281 -0.09403,1.4561 -1.372017,2.5791 -2.828075,2.485 -1.456111,-0.094 -2.578894,-1.3723 -2.485005,-2.8281 0.09399,-1.456 1.372018,-2.579 2.828076,-2.485 z"
       style="fill:#1abc9c;fill-opacity:1;stroke:none" />
    <path
       inkscape:connector-curvature="0"
       id="path6090"
       d="m 69.802537,969.50792 -8.362515,5.35335 -0.222453,1.47786 c 0.505037,-0.29906 1.127301,-0.44429 1.752961,-0.35011 1.442848,0.21718 2.453373,1.58582 2.236191,3.02867 -0.217184,1.44286 -1.585829,2.45337 -3.028677,2.23619 -0.62566,-0.0942 -1.1776,-0.41615 -1.572219,-0.85064 l -1.112261,7.38929 6.416051,7.57792 66.503575,10.01035 3.89292,-25.86253 -66.503573,-10.01036 z"
       style="fill:#68327f;fill-opacity:1;stroke:none" />
    <path
       inkscape:connector-curvature="0"
       id="path6092"
       d="m 67.291727,966.1073 -8.362513,5.35337 -1.946459,12.93125 6.416065,7.57784 66.50357,10.01034 3.89291,-25.86244 -66.503573,-10.01036 z m -4.321196,9.88172 c 1.442847,0.21718 2.453372,1.58582 2.23619,3.02867 -0.217184,1.44286 -1.585828,2.45337 -3.028677,2.23619 -1.442848,-0.21719 -2.453373,-1.58583 -2.236189,-3.02868 0.217182,-1.44285 1.585827,-2.45337 3.028675,-2.23618 z"
       style="fill:#9b59b6;fill-opacity:1;stroke:none" />
    <path
       sodipodi:nodetypes="cc"
       inkscape:connector-curvature="0"
       id="path6184"
       d="m 62.943888,978.4756 c -34.170441,4.40932 -8.461821,25.2174 -40.357142,43.2143"
       style="fill:none;stroke:#ffffff;stroke-width:2.5;stroke-linecap:butt;stroke-linejoin:miter;stroke-miterlimit:4;stroke-opacity:1;stroke-dasharray:none" />
    <path
       sodipodi:nodetypes="cc"
       inkscape:connector-curvature="0"
       id="path3789"
       d="M 38.658174,956.68989 C 7.7020196,957.17064 47.33921,1001.193 15.443889,1019.1899"
       style="fill:none;stroke:#ffffff;stroke-width:2.5;stroke-linecap:butt;stroke-linejoin:miter;stroke-miterlimit:4;stroke-opacity:1;stroke-dasharray:none" />
    <path
       style="fill:none;stroke:#ffffff;stroke-width:2.5;stroke-linecap:butt;stroke-linejoin:miter;stroke-miterlimit:4;stroke-opacity:1;stroke-dasharray:none"
       d="m 55.086745,1020.047 c -18.277583,-6.1264 -7.390392,13.4317 -28.214285,4.6429"
       id="path6200"
       inkscape:connector-curvature="0"
       sodipodi:nodetypes="cc" />
    <text
       xml:space="preserve"
       style="font-size:21.12518501px;font-style:normal;font-variant:normal;font-weight:normal;font-stretch:normal;line-height:125%;letter-spacing:0px;word-spacing:0px;fill:#000000;fill-opacity:1;stroke:none;font-family:Lato;-inkscape-font-specification:Lato"
       x="-366.88394"
       y="885.24969"
       id="text3001"
       sodipodi:linespacing="125%"
       transform="matrix(0.90285672,-0.42994155,0.42994155,0.90285672,0,0)"><tspan
         sodipodi:role="line"
         id="tspan3003"
         x="-366.88394"
         y="885.24969"
         style="font-size:18px;fill:#ffffff">beach</tspan></text>
    <text
       transform="matrix(0.98551017,0.16961636,-0.16961636,0.98551017,0,0)"
       sodipodi:linespacing="125%"
       id="text3005"
       y="958.5105"
       x="240.35062"
       style="font-size:21.12518501px;font-style:normal;font-variant:normal;font-weight:normal;font-stretch:normal;line-height:125%;letter-spacing:0px;word-spacing:0px;fill:#ffffff;fill-opacity:1;stroke:none;font-family:Lato;-inkscape-font-specification:Lato"
       xml:space="preserve"><tspan
         style="font-size:18px;fill:#ffffff;fill-opacity:1"
         y="958.5105"
         x="240.35062"
         id="tspan3007"
         sodipodi:role="line">pants</tspan></text>
    <text
       xml:space="preserve"
       style="font-size:21.12518501px;font-style:normal;font-variant:normal;font-weight:normal;font-stretch:normal;line-height:125%;letter-spacing:0px;word-spacing:0px;fill:#ffffff;fill-opacity:1;stroke:none;font-family:Lato;-inkscape-font-specification:Lato"
       x="141.57526"
       y="1017.8905"
       id="text3781"
       sodipodi:linespacing="125%"
       transform="matrix(0.99730078,0.07342448,-0.07342448,0.99730078,0,0)"><tspan
         sodipodi:role="line"
         id="tspan3783"
         x="141.57526"
         y="1017.8905"
         style="font-size:18px;fill:#ffffff;fill-opacity:1">shoes</tspan></text>
  </g>
</svg>
